<svg xmlns="http://www.w3.org/2000/svg" viewBox="0 0 67.919 60"><defs><style>.a{fill:#fe9b9e;}.b{fill:#fff;}.c{fill:#ff676b;}.d{fill:#ffedee;}.e{fill:#ffe100;}.f{fill:#ff5a5f;}</style></defs><g transform="translate(1 -28.85)"><path class="a" d="M24.6,37.383V87.191H68.861V82.776a9.119,9.119,0,0,0,8.377,0v4.415h8.49V37.383Z" transform="translate(-22.204 -7.401)"/><path class="b" d="M7.533,87.191H9.8V37.383H7.533Z" transform="translate(-7.401 -7.401)"/><path class="c" d="M485.4,87.191h2.264V37.383H485.4Z" transform="translate(-421.877 -7.401)"/><path class="d" d="M79.023,103.212A10.18,10.18,0,0,1,98.267,98.57V76.044a4.541,4.541,0,0,1-4.528-4.528H46.195a4.541,4.541,0,0,1-4.528,4.528v31.7a4.541,4.541,0,0,1,4.528,4.528H84.569a10.185,10.185,0,0,1-5.547-9.056" transform="translate(-37.007 -37.006)"/><g transform="translate(42.016 56.018)"><path class="e" d="M343.643,243.837a10.188,10.188,0,1,0-10.188,10.188,10.146,10.146,0,0,0,10.188-10.188" transform="translate(-323.267 -233.649)"/><path class="e" d="M370.462,380.588a10.212,10.212,0,0,1-4.528-1.019v12.339l4.528-4.528,4.528,4.528V379.569a10.212,10.212,0,0,1-4.528,1.019" transform="translate(-360.274 -360.212)"/></g><path class="f" d="M326.054,247.757a11.32,11.32,0,1,1,11.32-11.32A11.353,11.353,0,0,1,326.054,247.757Zm0-20.376a9.056,9.056,0,1,0,9.056,9.056A9.083,9.083,0,0,0,326.054,227.381Z" transform="translate(-273.85 -170.231)"/><path class="f" d="M392.666,309.841a1.132,1.132,0,1,1,0-2.264,4.541,4.541,0,0,0,4.528-4.528,1.132,1.132,0,1,1,2.264,0A6.812,6.812,0,0,1,392.666,309.841Z" transform="translate(-340.462 -236.843)"/><path class="f" d="M350,267.174a1.069,1.069,0,0,1-1.132-1.132,6.812,6.812,0,0,1,6.792-6.792,1.132,1.132,0,1,1,0,2.264,4.541,4.541,0,0,0-4.528,4.528A1.07,1.07,0,0,1,350,267.174Z" transform="translate(-303.455 -199.836)"/><path class="f" d="M77.168,106H38.794a1.069,1.069,0,0,1-1.132-1.132,3.335,3.335,0,0,0-3.4-3.4,1.069,1.069,0,0,1-1.132-1.132v-31.7a1.069,1.069,0,0,1,1.132-1.132,3.335,3.335,0,0,0,3.4-3.4,1.069,1.069,0,0,1,1.132-1.132H86.337a1.069,1.069,0,0,1,1.132,1.132,3.335,3.335,0,0,0,3.4,3.4A1.069,1.069,0,0,1,92,68.643V91.169a1.1,1.1,0,0,1-.906,1.132,1.138,1.138,0,0,1-1.245-.566,9.025,9.025,0,0,0-17.093,4.075,9.164,9.164,0,0,0,4.868,8.037,1.138,1.138,0,0,1,.566,1.245A.924.924,0,0,1,77.168,106Zm-37.356-2.264h33.96a11.215,11.215,0,0,1-3.283-7.924,11.353,11.353,0,0,1,11.32-11.32,11.215,11.215,0,0,1,7.924,3.283V69.662a5.553,5.553,0,0,1-4.415-4.415H39.813A5.553,5.553,0,0,1,35.4,69.662V99.32A5.553,5.553,0,0,1,39.813,103.735Z" transform="translate(-29.606 -29.605)"/><path class="f" d="M367.588,385.269a1.027,1.027,0,0,1-.792-.34l-3.736-3.736-3.736,3.736a1.034,1.034,0,0,1-1.245.226.99.99,0,0,1-.679-1.019V371.8a1.351,1.351,0,0,1,.566-1.019,1.028,1.028,0,0,1,1.132,0,9.113,9.113,0,0,0,8.037,0,1.321,1.321,0,0,1,1.132,0,1.189,1.189,0,0,1,.566,1.019v12.339a.99.99,0,0,1-.679,1.019A1.232,1.232,0,0,1,367.588,385.269Zm-4.528-6.792a1.027,1.027,0,0,1,.792.34l2.6,2.6V373.5a11.575,11.575,0,0,1-6.792,0v7.924l2.6-2.6A1.027,1.027,0,0,1,363.06,378.477Z" transform="translate(-310.856 -296.424)"/><path class="f" d="M65.787,80.922H56.732A1.069,1.069,0,0,1,55.6,79.79V76.96a11.575,11.575,0,0,1-6.792,0v2.83a1.069,1.069,0,0,1-1.132,1.132H.132A1.069,1.069,0,0,1-1,79.79V29.982A1.069,1.069,0,0,1,.132,28.85H65.787a1.069,1.069,0,0,1,1.132,1.132V79.79A1.069,1.069,0,0,1,65.787,80.922Zm-7.924-2.264h6.792V31.114H1.264V78.658h45.28V75.375a1.351,1.351,0,0,1,.566-1.019,1.028,1.028,0,0,1,1.132,0,9.113,9.113,0,0,0,8.037,0,1.321,1.321,0,0,1,1.132,0,1.189,1.189,0,0,1,.566,1.019v3.283Z"/><path class="f" d="M209.983,116.447H196.4a1.132,1.132,0,0,1,0-2.264h13.584a1.132,1.132,0,0,1,0,2.264Z" transform="translate(-170.231 -74.013)"/><path class="f" d="M147.29,159.114H111.066a1.132,1.132,0,1,1,0-2.264H147.29a1.132,1.132,0,1,1,0,2.264Z" transform="translate(-96.218 -111.02)"/><path class="f" d="M147.29,201.781H111.066a1.132,1.132,0,1,1,0-2.264H147.29a1.132,1.132,0,1,1,0,2.264Z" transform="translate(-96.218 -148.027)"/><path class="f" d="M178.114,244.447H162.266a1.132,1.132,0,1,1,0-2.264h15.848a1.132,1.132,0,1,1,0,2.264Z" transform="translate(-140.626 -185.033)"/><path class="f" d="M113.329,244.447h-2.264a1.132,1.132,0,1,1,0-2.264h2.264a1.132,1.132,0,0,1,0,2.264Z" transform="translate(-96.217 -185.033)"/><path class="f" d="M120.121,287.114h-9.056a1.132,1.132,0,1,1,0-2.264h9.056a1.132,1.132,0,1,1,0,2.264Z" transform="translate(-96.217 -222.04)"/><path class="f" d="M222.521,287.114h-9.056a1.132,1.132,0,1,1,0-2.264h9.056a1.132,1.132,0,1,1,0,2.264Z" transform="translate(-185.033 -222.04)"/></g></svg>