<svg xmlns="http://www.w3.org/2000/svg" viewBox="0 0 49 60"><defs><style>.a{fill:#ffedee;}.b{fill:#fff;}.c{fill:#fe9b9e;}.d{fill:#ffa800;}.e{fill:#fecc00;}.f{fill:#ff5a5f;}.g{fill:#e3e7f2;}.h{fill:#bfc9ff;}</style></defs><g transform="translate(-46.164)"><path class="a" d="M106.537,67.147v5a.915.915,0,0,1-.8,1h-18a.987.987,0,0,1-.9-1v-5h-3.7c-1.9,0-3.4,1.8-3.4,4v43c0,2.2,1.5,4,3.4,4h27.2c1.9,0,3.4-1.8,3.4-4v-43c0-2.2-1.5-4-3.4-4h-3.8Z" transform="translate(-29.573 -59.147)"/><path class="b" d="M57.557,114.147v-43c0-2.2,1.5-4,3.4-4h-2.4a4.012,4.012,0,0,0-4,4v43a4.012,4.012,0,0,0,4,4h2.4c-1.9,0-3.4-1.8-3.4-4" transform="translate(-7.393 -59.147)"/><path class="c" d="M338.977,67.148h-2.4c1.9,0,3.4,1.8,3.4,4v43c0,2.2-1.5,4-3.4,4h2.4a4.012,4.012,0,0,0,4-4v-43a4.012,4.012,0,0,0-4-4" transform="translate(-255.813 -59.148)"/><path class="a" d="M364.158,67.148h-2.4c1.9,0,3.4,1.8,3.4,4v43c0,2.2-1.5,4-3.4,4h2.4a4.012,4.012,0,0,0,4-4v-43a4.012,4.012,0,0,0-4-4" transform="translate(-277.994 -59.148)"/><path class="d" d="M153.491,12.393v-2a2.006,2.006,0,0,0-2-2h-6a2.006,2.006,0,0,0-2,2v2h-4a.945.945,0,0,0-1,1v7a1,1,0,0,0,1,1h18a1,1,0,0,0,1-1v-7a.945.945,0,0,0-1-1h-4Z" transform="translate(-81.327 -7.393)"/><path class="e" d="M153.491,12.393v-2a2.006,2.006,0,0,0-2-2h-6a2.006,2.006,0,0,0-2,2v2h-4a.945.945,0,0,0-1,1v7a1,1,0,0,0,1,1h15a1,1,0,0,0,1-1v-7a.945.945,0,0,0-1-1h-1Z" transform="translate(-81.327 -7.393)"/><path class="f" d="M83.164,111.754h-32a4.951,4.951,0,0,1-5-5v-27a1,1,0,1,1,2,0v27a2.946,2.946,0,0,0,3,3h32a2.946,2.946,0,0,0,3-3v-43a2.946,2.946,0,0,0-3-3h-5v4a2.006,2.006,0,0,1-2,2h-18a2.006,2.006,0,0,1-2-2v-4h-5a2.946,2.946,0,0,0-3,3v8a1,1,0,0,1-2,0v-8a4.951,4.951,0,0,1,5-5h6a.945.945,0,0,1,1,1v5h18v-5a.945.945,0,0,1,1-1h6a4.951,4.951,0,0,1,5,5v43A4.952,4.952,0,0,1,83.164,111.754Z" transform="translate(0 -51.754)"/><path class="f" d="M48.165,194.05a1,1,0,1,0-1,1,.945.945,0,0,0,1-1" transform="translate(-0.001 -170.05)"/><path class="g" d="M205.853,186.263c0-5.5-3.8-10-8.5-10s-8.5,4.5-8.5,10,3.8,10,8.5,10,8.5-4.5,8.5-10" transform="translate(-125.689 -155.263)"/><path class="h" d="M266.872,176.262h-.8c4.4.4,7.8,4.7,7.8,10s-3.4,9.5-7.8,10h.8a10,10,0,0,0,0-20" transform="translate(-193.708 -155.262)"/><path class="f" d="M132.1,15a2.006,2.006,0,0,1-2-2V6a2.006,2.006,0,0,1,2-2h3V3a3.008,3.008,0,0,1,3-3h6a2.946,2.946,0,0,1,3,3V4h3a2.006,2.006,0,0,1,2,2v7a2.006,2.006,0,0,1-2,2h-18Zm0-9v7h18V6h-4a.945.945,0,0,1-1-1V3a1,1,0,0,0-1-1h-6a.945.945,0,0,0-1,1V5a.945.945,0,0,1-1,1h-4Z" transform="translate(-73.934)"/><path class="f" d="M191.459,189.869a11,11,0,1,1,11-11A10.968,10.968,0,0,1,191.459,189.869Zm0-20a9,9,0,1,0,9,9A8.963,8.963,0,0,0,191.459,169.869Z" transform="translate(-118.295 -147.869)"/><path class="f" d="M215.033,209.443a.945.945,0,0,1-1-1,6.957,6.957,0,0,1,7-7,1,1,0,0,1,0,2,4.951,4.951,0,0,0-5,5A.945.945,0,0,1,215.033,209.443Z" transform="translate(-147.869 -177.443)"/><path class="f" d="M338.887,327.3a.907.907,0,0,1-.7-.3l-13.9-13.9a.99.99,0,0,1,1.4-1.4l13.9,13.9a.967.967,0,0,1,0,1.4A.908.908,0,0,1,338.887,327.3Z" transform="translate(-244.723 -274.297)"/><path class="f" d="M185.459,186.657h-4a1,1,0,0,1,0-2h4a1,1,0,1,1,0,2Z" transform="translate(-118.295 -162.657)"/><path class="f" d="M159.279,253.8h-3a1,1,0,1,1,0-2h3a1,1,0,1,1,0,2Z" transform="translate(-96.115 -221.804)"/><path class="f" d="M105.525,320.952h-8a1,1,0,0,1,0-2h8a1,1,0,0,1,0,2Z" transform="translate(-44.361 -280.952)"/><path class="f" d="M185.066,388.1h-12a1,1,0,0,1,0-2h12a1,1,0,0,1,0,2Z" transform="translate(-110.902 -340.099)"/><path class="f" d="M310.361,388.1h-3a1,1,0,1,1,0-2h3a1,1,0,0,1,0,2Z" transform="translate(-229.197 -340.099)"/><path class="f" d="M103.525,186.657h-6a1,1,0,1,1,0-2h6a1,1,0,0,1,0,2Z" transform="translate(-44.361 -162.657)"/><path class="f" d="M100.525,253.8h-3a1,1,0,1,1,0-2h3a1,1,0,1,1,0,2Z" transform="translate(-44.361 -221.804)"/><path class="f" d="M102.525,388.1h-5a1,1,0,0,1,0-2h5a1,1,0,1,1,0,2Z" transform="translate(-44.361 -340.099)"/></g></svg>