<svg xmlns="http://www.w3.org/2000/svg" viewBox="0 0 60 60"><defs><style>.a{fill:#ffedee;}.b{fill:#fff;}.c{fill:#fe9b9e;}.d{fill:#ff6165;}</style></defs><g transform="translate(-4.131)"><path class="a" d="M38.4,219.09l-4.248-2.671a5.4,5.4,0,0,1-2.282-3.706v-3.241a10,10,0,0,0,3.832-5.764,2.649,2.649,0,0,0,1.246-2.231v-2.426a42.624,42.624,0,0,1-6.116,1.419c2.225-2.189,3.008-6.684,3.28-9.875a16.5,16.5,0,0,1-2.593-5.1,14.191,14.191,0,0,0-5.751-1.03c-10.986,0-10.17,8-10.17,8v3.127a3.6,3.6,0,0,0-1.01,2.336v3.547a2.649,2.649,0,0,0,1.246,2.231,10,10,0,0,0,3.832,5.764v3.241a5.4,5.4,0,0,1-2.282,3.706l-4.248,2.671a1.284,1.284,0,0,0-.554,1.454,1.313,1.313,0,0,0,1.263.931H37.69a1.314,1.314,0,0,0,1.263-.931,1.284,1.284,0,0,0-.554-1.454Z" transform="translate(-7.379 -162.475)"/><path class="b" d="M16.143,219.281l4.248-2.671a5.4,5.4,0,0,0,2.282-3.706v-3.241a10,10,0,0,1-3.832-5.764,2.649,2.649,0,0,1-1.246-2.231v-3.547a3.6,3.6,0,0,1,1.01-2.336v-3.127s-.729-7.226,8.634-7.941c-.47-.034-.951-.062-1.473-.062-10.986,0-10.17,8-10.17,8v3.127a3.6,3.6,0,0,0-1.01,2.336v3.546a2.649,2.649,0,0,0,1.246,2.231,10,10,0,0,0,3.832,5.764V212.9a5.4,5.4,0,0,1-2.282,3.707l-4.248,2.671a1.284,1.284,0,0,0-.554,1.454,1.313,1.313,0,0,0,1.263.931h3.008a1.313,1.313,0,0,1-1.263-.931,1.285,1.285,0,0,1,.555-1.454Z" transform="translate(-7.379 -162.649)"/><path class="a" d="M183.421,8.393c-10.952,0-19.831,7.83-19.831,17.488a15.974,15.974,0,0,0,3.28,9.63c-.272,3.191-1.054,7.686-3.28,9.875,0,0,6.8-.938,11.4-3.674a21.987,21.987,0,0,0,8.427,1.656c10.952,0,19.831-7.83,19.831-17.488S194.373,8.393,183.421,8.393Z" transform="translate(-140.138 -7.393)"/><path class="c" d="M316.2,8.683c-.515,0-1.02.034-1.525.068,10.237.689,18.306,8.216,18.306,17.42,0,9.182-8.028,16.7-18.23,17.416.481.031.959.071,1.449.071,10.952,0,19.831-7.829,19.831-17.488S327.15,8.683,316.2,8.683Z" transform="translate(-272.915 -7.648)"/><g transform="translate(4.131)"><path class="d" d="M156.212,38.994a1.017,1.017,0,0,1-.939-.618.988.988,0,0,1,.221-1.09c1.5-1.478,2.547-4.625,2.953-8.884a16.92,16.92,0,0,1-3.251-9.914C155.2,8.293,164.548,0,176.044,0s20.848,8.293,20.848,18.488-9.353,18.489-20.848,18.489a22.957,22.957,0,0,1-8.347-1.544,37.607,37.607,0,0,1-11.343,3.552.969.969,0,0,1-.142.01ZM176.044,2C165.67,2,157.23,9.4,157.23,18.488a15,15,0,0,0,3.081,9.037.99.99,0,0,1,.2.678,23.474,23.474,0,0,1-2.043,8.355,30.725,30.725,0,0,0,8.628-3.095,1.044,1.044,0,0,1,.921-.065,20.853,20.853,0,0,0,8.032,1.579c10.374,0,18.814-7.4,18.814-16.488S186.418,2,176.044,2Z" transform="translate(-136.892)"/><path class="d" d="M250.337,263.995a1.014,1.014,0,0,1-.979-.727.993.993,0,0,1,.444-1.125c1.356-.824,2.952-1.829,3.37-2.142a1.028,1.028,0,0,1,1.326-.244,1.012,1.012,0,0,1,.5.858c0,.641,0,.724-4.127,3.23a1.021,1.021,0,0,1-.533.149Z" transform="translate(-219.611 -228.675)"/><path class="d" d="M30.311,215.088H6.464a2.329,2.329,0,0,1-2.239-1.651,2.277,2.277,0,0,1,.983-2.578l4.248-2.671a4.569,4.569,0,0,0,1.813-2.863v-2.744a11.123,11.123,0,0,1-3.713-5.669,3.619,3.619,0,0,1-1.365-2.824v-3.546a4.656,4.656,0,0,1,1.01-2.726v-2.737a8.139,8.139,0,0,1,2.087-5.836c1.933-2.1,4.994-3.167,9.1-3.167a15.357,15.357,0,0,1,6.166,1.117l.426.188.134.44a15.478,15.478,0,0,0,2.437,4.792l.227.3-.032.375a23.484,23.484,0,0,1-2.043,8.354c1.011-.22,2.254-.527,3.557-.935l1.325-.415v3.794a3.619,3.619,0,0,1-1.365,2.824,11.129,11.129,0,0,1-3.713,5.669v2.744a4.567,4.567,0,0,0,1.752,2.828l4.31,2.706a2.277,2.277,0,0,1,.982,2.578,2.329,2.329,0,0,1-2.24,1.651ZM18.388,178.077c-3.506,0-6.06.844-7.591,2.509a6.166,6.166,0,0,0-1.567,4.394l0,3.67-.335.3a2.676,2.676,0,0,0-.675,1.6v3.546a1.649,1.649,0,0,0,.782,1.392l.347.221.092.4a8.973,8.973,0,0,0,3.4,5.153l.456.3v3.779a6.347,6.347,0,0,1-2.813,4.584L6.3,212.545a.292.292,0,0,0-.126.33.3.3,0,0,0,.287.212H30.311a.3.3,0,0,0,.287-.212.292.292,0,0,0-.126-.33l-4.248-2.671a6.332,6.332,0,0,1-2.752-4.549v-3.779l.456-.3a9.106,9.106,0,0,0,3.4-5.153l.092-.4.347-.221a1.649,1.649,0,0,0,.782-1.392v-1.082a42.549,42.549,0,0,1-4.957,1.066l-3.016.42,2.154-2.118c1.5-1.478,2.547-4.625,2.953-8.885a17.427,17.427,0,0,1-2.375-4.638A13.936,13.936,0,0,0,18.388,178.077Z" transform="translate(-4.131 -155.088)"/><path class="d" d="M286.182,93.547a5.05,5.05,0,0,1-5.085-5,1.017,1.017,0,0,1,2.034,0,3.051,3.051,0,1,0,3.051-3,5,5,0,1,1,5.085-5,1.017,1.017,0,0,1-2.034,0,3.051,3.051,0,1,0-3.051,3,5,5,0,1,1,0,10Z" transform="translate(-247.539 -66.539)"/><path class="d" d="M315.688,80.76a1.025,1.025,0,0,1-.719-.293.992.992,0,0,1-.3-.707V59.754a1.017,1.017,0,0,1,2.034,0V79.76a.992.992,0,0,1-.3.707A1.025,1.025,0,0,1,315.688,80.76Z" transform="translate(-277.045 -51.752)"/></g></g></svg>