<svg xmlns="http://www.w3.org/2000/svg" viewBox="0 0 60 60"><defs><style>.a{fill:#e3e7f2;}.b{fill:#a4c2f7;}.c{fill:#d4e1f4;}.d{fill:#ffedee;}.e{fill:#ff5a5f;}</style></defs><g transform="translate(0 0)"><g transform="translate(14 26)"><circle class="a" cx="3" cy="3" r="3" transform="translate(0 4)"/><path class="b" d="M233.866,208.871a13,13,0,0,1-13,13,12.34,12.34,0,0,1-1.5-.09,13,13,0,0,1,0-25.82,12.34,12.34,0,0,1,1.5-.09,13,13,0,0,1,13,13Z" transform="translate(-195.866 -195.871)"/><ellipse class="a" cx="11.5" cy="12.91" rx="11.5" ry="12.91" transform="translate(12 0.09)"/><path class="b" d="M260,239a9,9,0,0,1-9,9,9.293,9.293,0,0,1-1.5-.12,9.007,9.007,0,0,1,0-17.76A9.3,9.3,0,0,1,251,230,9,9,0,0,1,260,239Z" transform="translate(-226.002 -226.004)"/><g transform="translate(16 4.12)"><ellipse class="a" cx="7.5" cy="8.88" rx="7.5" ry="8.88"/><path class="a" d="M411.4,396.4l-3,3,5.5,5.5a2,2,0,0,0,2.828,0l.172-.172a2,2,0,0,0,0-2.828Z" transform="translate(-388.9 -377.024)"/></g><path class="c" d="M382.231,366.234a13.047,13.047,0,0,1-4,4l3.035,3.035,4-4Z" transform="translate(-346.267 -346.27)"/></g><path class="d" d="M233.367,247.78a12.34,12.34,0,0,0,1.5.09,12.908,12.908,0,0,0,1.481-.093,13,13,0,0,1,.008-25.815,13.107,13.107,0,0,0-1.49-.092,12.34,12.34,0,0,0-1.5.09,13,13,0,0,0,0,25.82Z" transform="translate(-195.867 -195.87)"/><g transform="translate(0 0)"><path class="d" d="M17.4,299.941l-6.813,11.072L2.967,323.391l-1.7-1.048L8.88,309.965l6.813-11.072Z" transform="translate(-1.115 -263.867)"/><g transform="translate(0 0)"><path class="e" d="M257.467,267.471a10,10,0,1,0-10-10A10,10,0,0,0,257.467,267.471Zm0-18a8,8,0,1,1-8,8A8,8,0,0,1,257.467,249.471Z" transform="translate(-218.467 -218.471)"/><path class="e" d="M308.2,285.6a1,1,0,0,0,1-1,1,1,0,0,1,2,0,2.869,2.869,0,0,1-.8,1.9,4.784,4.784,0,0,0-1.2,3.1,1,1,0,1,0,2,0,2.869,2.869,0,0,1,.8-1.9,4.784,4.784,0,0,0,1.2-3.1,3,3,0,0,0-6,0,1,1,0,0,0,1,1Z" transform="translate(-271.199 -248.603)"/><path class="e" d="M105.73,39.809a1,1,0,0,0,1.376-.328l1.646-2.675a3.944,3.944,0,0,0,1.168.194,4,4,0,0,0,3.285-1.728l4.864,1.8a13.975,13.975,0,0,0,20.659,14.153l2.484,2.485a1,1,0,0,0,.707.293.984.984,0,0,0,.459-.127l4.834,4.834a3,3,0,0,0,4.241,0l.173-.172a3,3,0,0,0,0-4.243l-4.835-4.835a.988.988,0,0,0-.165-1.165l-2.485-2.485a13.943,13.943,0,0,0-4.021-18.13l12.7-26.242a1,1,0,0,0-1.8-.871l-12.6,26.045a13.969,13.969,0,0,0-19.93,8.482l-4.605-1.7c.013-.13.039-.256.039-.389a4,4,0,1,0-6.877,2.766L105.4,38.433A1,1,0,0,0,105.73,39.809Zm44.484,17.312-.174.173a1.023,1.023,0,0,1-1.413,0L143.835,52.5l1.586-1.586,4.793,4.793A1,1,0,0,1,150.215,57.121Zm-7.2-9.608L144.507,49l-2.586,2.586L140.434,50.1c.028-.021.051-.048.079-.069a14.1,14.1,0,0,0,2.442-2.444C142.975,47.561,143,47.539,143.019,47.513ZM131.921,27a12,12,0,1,1-12,12A12,12,0,0,1,131.921,27Zm-22,4a2,2,0,1,1-2,2A2,2,0,0,1,109.921,31Z" transform="translate(-92.921 0)"/><path class="e" d="M87.493,354.556a1,1,0,0,0,1.783-.817l-.065-.181a.76.76,0,0,0-.106-.171.637.637,0,0,0-.122-.145,1.46,1.46,0,0,0-.159-.122,1.05,1.05,0,0,0-.757-.125.986.986,0,0,0-.574,1.561Z" transform="translate(-77.062 -311.609)"/><path class="e" d="M1,60.019H51a1,1,0,1,0,0-2H47v-1a1,1,0,0,0-2,0v1H43v-1a1,1,0,0,0-2,0v1H39v-1a1,1,0,0,0-2,0v1H35v-1a1,1,0,0,0-2,0v1H31v-1a1,1,0,0,0-2,0v1H27v-1a1,1,0,0,0-2,0v1H23v-1a1,1,0,0,0-2,0v1H19v-1a1,1,0,0,0-2,0v1H15v-1a1,1,0,0,0-2,0v1H11v-1a1,1,0,0,0-2,0v1H7v-1a1,1,0,0,0-2,0v1H2.79l7.2-11.706a1,1,0,0,0-1.7-1.048L2,55.486V43.019H4a1,1,0,1,0,0-2H2v-2H4a1,1,0,1,0,0-2H2v-2H4a1,1,0,1,0,0-2H2v-2H4a1,1,0,1,0,0-2H2v-2H4a1,1,0,0,0,0-2H2v-2H4a1,1,0,1,0,0-2H2v-2H4a1,1,0,1,0,0-2H2v-2H4a1,1,0,1,0,0-2H2v-2H4a1,1,0,0,0,0-2H2V3.433L4.293,5.726A1,1,0,0,0,5.707,4.312l-4-4A1,1,0,0,0,0,1.019v58a1,1,0,0,0,1,1Z" transform="translate(0 -0.019)"/><circle class="e" cx="1" cy="1" r="1" transform="translate(38 43)"/></g></g></g></svg>