<svg xmlns="http://www.w3.org/2000/svg" xmlns:xlink="http://www.w3.org/1999/xlink" viewBox="0 0 464.015 350"><defs><style>.a,.e{fill:#ff5a5f;}.a,.c,.g{opacity:0.1;}.b{fill:#fff;}.ae,.d{opacity:0.2;}.f{fill:#ffd2c6;}.h{fill:#626696;}.i{fill:#ffcde5;}.j{fill:#985c7e;}.k{fill:url(#a);}.l{fill:#cc818c;}.m{fill:#444053;}.aa,.n{opacity:0.05;}.o{fill:#ff748f;}.p,.r{fill:#575988;}.q{fill:#dce6f2;}.r{opacity:0.5;}.s{fill:#67647e;}.t{fill:#585268;}.u{fill:#e4aab4;}.v{fill:#ffd037;}.w{fill:#65617d;}.x{fill:#9d9cb5;}.y{fill:url(#b);}.z{fill:#2d293d;}.ab{fill:#ffcdd3;}.ac{fill:#656691;}.ad{fill:#a8a8a8;}</style><linearGradient id="a" x1="0.877" y1="1" x2="0.877" gradientUnits="objectBoundingBox"><stop offset="0" stop-color="gray" stop-opacity="0.251"/><stop offset="0.54" stop-color="gray" stop-opacity="0.122"/><stop offset="1" stop-color="gray" stop-opacity="0.102"/></linearGradient><linearGradient id="b" x1="0.5" y1="1" x2="0.5" y2="0" xlink:href="#a"/></defs><g transform="translate(-0.016 -0.004)"><path class="a" d="M346.846,91.428c-19.911,16.9-45.736,15.808-68.367,7.013s-43.42-24.448-65.47-35.576a183.812,183.812,0,0,0-57.519-18.18c-28.1-3.9-59.486.861-79.065,28.172-21.8,30.428-20.13,85.307,3.444,113.221,12,14.206,27.707,21.18,41.405,32.287s26.385,29.515,25.219,50.928c-1.081,19.8-13.638,35.03-26.635,44.574-10.044,7.374-22.412,15.429-23.621,30.707-1.171,14.779,9.23,26.364,19.161,32.95,32.4,21.486,72.324,21.279,104.611-.542,11.511-7.788,22.084-18.145,34.16-24.207,31.706-15.928,66.645.1,100.22,5.971a166.767,166.767,0,0,0,85.238-7.525c16.626-5.954,33.316-15.067,45-32.012,8.425-12.226,13.673-27.7,18.6-42.985q7.878-24.439,15.149-49.232c2.906-9.923,5.769-20.035,6.522-30.647,1.36-19.235-4.374-38.25-12.183-54.479-18.541-38.542-49.77-65.642-83.59-72.526s-69.6,6.561-95.829,35.981" transform="translate(-61.06 -43.49)"/><ellipse class="a" cx="97.714" cy="4.46" rx="97.714" ry="4.46" transform="translate(113.049 224.795)"/><path class="b" d="M425.808,298.855a88.588,88.588,0,1,1,88.575-88.588A88.687,88.687,0,0,1,425.808,298.855Zm0-176.314a87.727,87.727,0,1,0,87.727,87.727,87.826,87.826,0,0,0-87.727-87.727Z" transform="translate(-218.325 -88.017)"/><path class="b" d="M452.1,305.275a68.707,68.707,0,1,1,68.707-68.707A68.791,68.791,0,0,1,452.1,305.275Zm0-136.554a67.846,67.846,0,1,0,67.846,67.846A67.925,67.925,0,0,0,452.1,168.721Z" transform="translate(-244.619 -114.317)"/><path class="b" d="M480.355,312.169a47.355,47.355,0,1,1,47.355-47.355A47.355,47.355,0,0,1,480.355,312.169Zm0-93.848a46.494,46.494,0,1,0,46.494,46.494,46.494,46.494,0,0,0-46.494-46.494Z" transform="translate(-272.872 -142.564)"/><ellipse class="a" cx="6.143" cy="2.032" rx="6.143" ry="2.032" transform="translate(415.749 171.53)"/><ellipse class="a" cx="36.179" cy="5.937" rx="36.179" ry="5.937" transform="translate(40.695 274.673)"/><g class="c" transform="translate(24.151 116.116)"><path d="M233.284,313.21H122.909a5.786,5.786,0,0,0-5.769,5.769v69.741a5.786,5.786,0,0,0,5.769,5.769h86.586s2.243,11.908-5.127,13.19c0,0,16.505,1.184,13.621-13.19h15.3a5.786,5.786,0,0,0,5.769-5.769V318.979A5.786,5.786,0,0,0,233.284,313.21Z" transform="translate(-117.14 -313.21)"/><g class="d" transform="translate(16.247 18.511)"><rect width="89.414" height="5.45" rx="2.725"/><rect width="89.414" height="5.45" rx="2.725" transform="translate(0 24.358)"/><rect width="74.984" height="5.45" rx="2.725" transform="translate(0 36.532)"/><rect width="38.771" height="5.45" rx="2.725" transform="translate(0 12.179)"/></g></g><path class="b" d="M235.518,312.09H125.139a5.786,5.786,0,0,0-5.769,5.769V387.6a5.786,5.786,0,0,0,5.769,5.769h86.586s2.247,11.908-5.127,13.186c0,0,16.505,1.184,13.621-13.186h15.3a5.782,5.782,0,0,0,5.764-5.769V317.859a5.782,5.782,0,0,0-5.764-5.769Z" transform="translate(-94.259 -196.456)"/><g class="d" transform="translate(41.362 134.145)"><rect class="e" width="89.414" height="5.45" rx="2.725"/><rect class="e" width="89.414" height="5.45" rx="2.725" transform="translate(0 24.358)"/><rect class="e" width="74.984" height="5.45" rx="2.725" transform="translate(0 36.536)"/><rect class="e" width="38.771" height="5.45" rx="2.725" transform="translate(0 12.179)"/></g><path class="f" d="M264.728,300.072l-6.117,13.01a11.142,11.142,0,0,1-1.485,2.893c-.581.452-3.151,8.179-3.151,8.179l-6.556,10.134h0l-.431.689-2.583-.71-1.8-6.746.112-1.959v-.245s4.06-4.245,4.959-4.568c0,0,.706.082,2.062-3.207s2.583-4,2.583-4l.706-2.385,7.6-12.1s6.371-9.139,8.106-5.084S264.728,300.072,264.728,300.072Z" transform="translate(-164.439 -185.544)"/><path class="f" d="M211.928,519.221a1.464,1.464,0,0,1-.207.624c-.706,1.029-4.7,22.08-4.7,22.08.319,1.421-.577,4.253-1.162,5.54a79.7,79.7,0,0,0-1.868,7.981s-.319,14.422-1.154,16.673.267,7.082.267,7.082c-.082,2.221,1.253,4.568,2.045,5.764.06.077.108.155.155.22.258.37.43.581.43.581a3.354,3.354,0,0,0,.9,1.115c.056.047.116.09.181.138a10.251,10.251,0,0,0,3.608,1.524l.125.026c.517.116.861.159.861.159l.319,1.722-3.41.706-6.5.43s-7.663.581-5.924-2.833a5.4,5.4,0,0,0,.314-.723h0c.065-.164.125-.336.177-.508a17.671,17.671,0,0,0,.34-7.267l-1.5-11.6c-2.441-10.814,1.929-22.855,1.929-22.855s-.383-.964.456-3.41,0-7.788,0-7.788-.43-6.888-1.029-10.3a20.815,20.815,0,0,1-.232-4.335,21.654,21.654,0,0,1,.232-2.54l14.68-1.946A11.326,11.326,0,0,1,211.928,519.221Z" transform="translate(-137.039 -312.287)"/><path class="g" d="M213.214,681.986l-3.41.706-6.5.431s-7.663.581-5.924-2.833a5.4,5.4,0,0,0,.314-.723h0c.065-.164.125-.336.176-.508a11.792,11.792,0,0,1,3.874.784c2.183.861,3.827-1.356,3.827-1.356l1.059-2.023.155-.293c.258.37.43.581.43.581A3.444,3.444,0,0,0,208.3,678l-.181.379-1.029,2.153s1.317.133,3.121.43a1.4,1.4,0,0,0,1.7-.93l.125.026c.517.116.861.159.861.159Z" transform="translate(-138.54 -403.801)"/><path class="h" d="M215.634,684.292c-.258,1.158-7.435,1.515-7.435,1.515s-4-.387-5.114.547-4.417.71-4.546.71-1.864-.069-2.544-3.186c-.659-3.039.887-3.569.964-3.595h0a11.679,11.679,0,0,1,4.06.788c2.183.861,3.827-1.352,3.827-1.352l1.214-2.32c.258.37.43.581.43.581a3.4,3.4,0,0,0,1.081,1.253l-1.21,2.544s1.317.133,3.121.43a1.491,1.491,0,0,0,1.821-1.416,1.468,1.468,0,0,0,0-.194s1.124.323,2.506.71a2.583,2.583,0,0,1,1.825,2.983Z" transform="translate(-137.804 -404.501)"/><path class="f" d="M251.989,532.368c-.172,1.029-.349,3.694-.349,3.694.6,2.23-.943,7.529-.943,7.529l-.771,3.013c.344,3.875-2.122,13.307-2.122,13.307s-1.653,8.756-2.514,12.536a10.422,10.422,0,0,0,.431,6.311c.043.1.069.155.069.155a.721.721,0,0,0,.052.211c.022.069.056.207.09.306a4.65,4.65,0,0,0,.861,1.438,4.36,4.36,0,0,0,.461.474l.026.026a9.317,9.317,0,0,0,2.738,1.683h0l.43.172a12.952,12.952,0,0,0,1.365.431h0a1.4,1.4,0,0,0,.155.034l-.349,2.023-4.546-1.162-6.092-1.976-3.013-1.722s.034-.164.095-.478v-.052c.026-.133.052-.293.09-.474.512-2.626,1.679-10.074,1.093-15.541-.728-6.78,2.1-16.139,2.785-18.369a11.137,11.137,0,0,0,.517-3.948c-1.119-1.636-1.378-8.154-1.378-8.154s-2.058-4.21-3.763-8.675a22.815,22.815,0,0,1-1.227-4.512,15.777,15.777,0,0,1-.25-3.3s13.828-12.618,15.343-.4c.052.43.1.809.146,1.2C252.746,529.315,252.152,531.373,251.989,532.368Z" transform="translate(-160.637 -310.091)"/><path class="g" d="M254.72,672.734l-.349,2.023-4.546-1.162-6.092-1.976L240.72,669.9s.034-.164.095-.478v-.052c.026-.133.052-.293.09-.474l.43-.043h.034a5.734,5.734,0,0,1,2.553.344c.99.375,2.29.8,2.557.62a3.254,3.254,0,0,1,1.459-.258l.633-1.386.09-.211a4.6,4.6,0,0,0,.861,1.438,4.857,4.857,0,0,0,.486.5l-.026.491-.034.693a8.859,8.859,0,0,0,2.187,1.012,1.266,1.266,0,0,0,.611,0h0l.43.172a12.938,12.938,0,0,0,1.365.431h0A1.418,1.418,0,0,0,254.72,672.734Z" transform="translate(-163.368 -399.125)"/><path class="h" d="M251.882,677.735c-1.27-.366-4.331-.947-4.826-.5s-4.735,0-4.735,0a2.583,2.583,0,0,1-2.191-1.291c-.861-1.373-.168-5.816-.168-5.816l.314-.03.525-.052h.034a5.669,5.669,0,0,1,2.553.344c.99.37,2.29.8,2.557.62a3.194,3.194,0,0,1,1.459-.258l.723-1.6a4.649,4.649,0,0,0,.861,1.438,4.864,4.864,0,0,0,.486.5l-.06,1.184a8.916,8.916,0,0,0,2.187,1.007.861.861,0,0,0,1.05-.331.65.65,0,0,0,.077-.176h0a7.4,7.4,0,0,0,1.8.6h0a3.286,3.286,0,0,1,3.5,2.523C258.675,677.873,253.126,678.1,251.882,677.735Z" transform="translate(-162.786 -399.808)"/><path class="g" d="M214.407,519.2c-.284.082-.542.159-.783.237a10.866,10.866,0,0,1-1.9.4,79.106,79.106,0,0,1-12.885.095,21.655,21.655,0,0,1,.232-2.54l14.68-1.946A11.5,11.5,0,0,1,214.407,519.2Z" transform="translate(-139.517 -312.27)"/><path class="h" d="M225.491,489.158s-5.39.835-9.772,1.8c-1.464.319-2.815.65-3.814.977a11.719,11.719,0,0,1-1.9.4c-4.882.685-13.552.052-13.552.052-2.381-7.723,2.893-17.448,2.893-17.448-.125-.775,1.1-3.151,1.1-3.151l.022-.078.749-2.755h20.022l.245,1.184.508,2.411,3.143,14.925Z" transform="translate(-137.807 -285.788)"/><path class="g" d="M251.42,518.138l-.121.052-2.342,1.037c-2.536,1.171-10.125,1.391-12.777,1.412a15.78,15.78,0,0,1-.25-3.3s13.828-12.618,15.343-.4C251.326,517.376,251.373,517.751,251.42,518.138Z" transform="translate(-160.637 -310.085)"/><path class="h" d="M235.291,492.66l-.491.215-2.342,1.042c-2.583,1.188-10.414,1.4-12.915,1.412h-.659a3.016,3.016,0,0,1-2.316-1.408c0-.155-.121-.917-.224-1.571-.086-.525-.164-.977-.164-.977a60.129,60.129,0,0,1-7.788-4.034c-1.967-1.339-1.472-10.853-1.089-15.636.133-1.649.25-2.734.25-2.734l20.268,1.184,2.841.164,1.627.362.431.09s1.162,8.5,1.722,9.2.2,3.091.129,4.447a8.26,8.26,0,0,1-.189,1.722,10.646,10.646,0,0,1,.637,3.719,7.417,7.417,0,0,0,.271,2.8Z" transform="translate(-144.138 -285.8)"/><circle class="f" cx="8.304" cy="8.304" r="8.304" transform="translate(61.157 119.681)"/><path class="f" d="M203.973,348.791s.577,7.865-1.029,9.669a71.874,71.874,0,0,1-5.794,5.213l1.292,5.342,7.275.839,8.5-9.079-1.933-2.381s-1.481-5.024-.258-7.534S203.973,348.791,203.973,348.791Z" transform="translate(-138.555 -217.341)"/><path class="g" d="M247.417,376.448h0l-.431.689-2.583-.71-1.8-6.746.112-1.959.53-.762s2.833.069,2.708,2.643C245.824,371.863,247.112,375.587,247.417,376.448Z" transform="translate(-164.439 -227.705)"/><path class="g" d="M232.51,471.783s-2.049.456-4.4.762-5.054.461-6.165-.185c-1.864-1.1-11.964-.788-14.861-.676a3.315,3.315,0,0,0-.5.022l.749-2.755h20.022l.245,1.184,2.841.164,1.627.362C232.347,471.326,232.51,471.783,232.51,471.783Z" transform="translate(-143.931 -285.788)"/><path class="i" d="M208.868,368.15s2.833.065,2.7,2.639,1.545,7.017,1.545,7.017l-.646,1.481s-.9,3.6-.194,4.507,3.285.9,1.8,8.3c0,0-.319,5.536.452,7.34s.771,6.113,1.929,7.917a43.512,43.512,0,0,1,2.708,5.988s-8.373,1.864-10.56.577-15.644-.633-15.644-.633.065-2.256,0-2.51a2.152,2.152,0,0,1,.323-1.644c.43-.611,1.158-1.64.771-2.54s.969-2.23.258-3.625-1.571-1.675-1.4-2.437a3.3,3.3,0,0,0-.788-2.437c-.512-.641-4-7.448-4-7.448l-.577-3.19s-4.481-3.285-4.4-4.83,1.7-3.685,1.7-3.685l4.3-4.232s2.381,2.583,4.7,1.675,7.314-5.213,7.314-5.213,1.782-.964,1.911-1.67,1.223-.065,1.223-.065,1.61-.883,1.933-.573a5.588,5.588,0,0,0,1.722.573Z" transform="translate(-130.586 -228.382)"/><path class="f" d="M158.977,399.3l-1.373,1.072a18.335,18.335,0,0,0-1.722,7.017,96.14,96.14,0,0,1-1.722,10.874l-2.7,4.835s-4.456,9.329-5.033,11.8-3.22,6.664-3.22,6.664-8.95,8.042-2.7,9.471,6.436-6.4,6.436-6.4a8.457,8.457,0,0,0,1.7-2.7c.237-1.093,8.154-15.1,8.154-15.1s2.772-3.767,2.191-5.76c0,0,3.6-8.476,3.6-10.6A37.661,37.661,0,0,0,162,405.2l.577-4.443Z" transform="translate(-105.031 -246.122)"/><path class="g" d="M219.253,440.53s-6.311,3.3-7.534,3.474,5.342-.689,5.342-.689Z" transform="translate(-146.766 -269.603)"/><path class="g" d="M225.434,446.51s-8.369,2.833-12.054,2.316C213.4,448.826,222.537,450.565,225.434,446.51Z" transform="translate(-147.798 -273.009)"/><path class="g" d="M226.736,448.66s-7.534,4.735-11.976,3.965c0,0,10.366,2.062,11.976.969L222.1,452.3S227.253,449.581,226.736,448.66Z" transform="translate(-148.584 -274.233)"/><path class="g" d="M191.521,306.588a7.844,7.844,0,0,0-6.337,1.2c-1.291,1.016-2.152,2.583-3.6,3.323a21.2,21.2,0,0,1-2.355.831,6.793,6.793,0,0,0-4.146,7.318c.228,1.291.827,2.454,1.119,3.711a14.5,14.5,0,0,1-.508,6.836,71.936,71.936,0,0,1-7.168,17.749,1.86,1.86,0,0,0-.357,1.192,1.722,1.722,0,0,0,.431.762c2.975,3.444,7.818,4.619,12.364,4.774a9.364,9.364,0,0,0,4.9-.814,7.4,7.4,0,0,0,2.389-2.191,11.624,11.624,0,0,0,2.23-7.495c-.125-2.152-.861-4.344-.306-6.432a1.722,1.722,0,0,1,.387-.788c.491-.5,1.291-.37,2-.452,1.89-.22,3.112-2.213,3.336-4.1s-.25-3.793-.258-5.691a11.921,11.921,0,0,1,2.243-7.009,7.557,7.557,0,0,0,1.645-2.8c.267-1.356-.521-2.355-1.2-3.444-1.055-1.67-1.571-3.62-3.177-4.895a8.575,8.575,0,0,0-3.625-1.584Z" transform="translate(-122.047 -193.214)"/><path class="j" d="M190.349,305.388a7.832,7.832,0,0,0-6.337,1.2c-1.291,1.012-2.152,2.583-3.6,3.323a20.8,20.8,0,0,1-2.351.827,6.8,6.8,0,0,0-4.15,7.318c.228,1.291.827,2.454,1.124,3.715a14.538,14.538,0,0,1-.508,6.832,71.978,71.978,0,0,1-7.155,17.749,1.821,1.821,0,0,0-.353,1.188,1.657,1.657,0,0,0,.431.762c2.979,3.444,7.818,4.619,12.364,4.774a9.362,9.362,0,0,0,4.9-.809,7.422,7.422,0,0,0,2.389-2.2,11.623,11.623,0,0,0,2.217-7.478c-.125-2.153-.861-4.344-.3-6.436a1.722,1.722,0,0,1,.383-.788c.491-.5,1.292-.37,2-.43,1.89-.22,3.108-2.213,3.332-4.1s-.245-3.788-.258-5.691a11.92,11.92,0,0,1,2.239-7.03,7.529,7.529,0,0,0,1.64-2.807c.267-1.356-.517-2.35-1.2-3.444-1.055-1.67-1.571-3.62-3.181-4.89A8.532,8.532,0,0,0,190.349,305.388Z" transform="translate(-121.392 -192.531)"/><path class="g" d="M214.76,492.62s1.653,7.723,4.4,9.828Z" transform="translate(-148.584 -299.268)"/><g class="c" transform="translate(45.611 120.507)"><path d="M183.788,337.88c-.086-.3-.185-.6-.288-.9C183.586,337.281,183.685,337.583,183.788,337.88Z" transform="translate(-176.392 -331.138)"/><path d="M197.873,323.41a2.794,2.794,0,0,1-.034.728,7.632,7.632,0,0,1-1.645,2.807,11.886,11.886,0,0,0-2.243,7c0,1.9.478,3.8.254,5.691s-1.442,3.874-3.332,4.1c-.7.082-1.511-.052-2,.43a1.722,1.722,0,0,0-.387.788c-.547,2.092.181,4.279.3,6.436a11.624,11.624,0,0,1-2.213,7.478,7.465,7.465,0,0,1-2.389,2.2,9.628,9.628,0,0,1-4.9.809c-4.469-.151-9.221-1.291-12.209-4.611a1.18,1.18,0,0,0-.073.62,1.658,1.658,0,0,0,.431.762c2.979,3.444,7.818,4.619,12.364,4.774a9.362,9.362,0,0,0,4.9-.809,7.464,7.464,0,0,0,2.389-2.2,11.623,11.623,0,0,0,2.217-7.478c-.125-2.152-.861-4.344-.3-6.436a1.722,1.722,0,0,1,.383-.788c.491-.5,1.291-.37,2-.431,1.89-.22,3.108-2.213,3.332-4.1s-.245-3.788-.258-5.691a11.92,11.92,0,0,1,2.239-7,7.529,7.529,0,0,0,1.64-2.807A3.19,3.19,0,0,0,197.873,323.41Z" transform="translate(-166.989 -323.41)"/></g><path class="e" d="M563.008,807.442s-16.38-.99-14.448,10.487a2.8,2.8,0,0,0,1.455,2.949s.03-.861,1.679-.56a7.535,7.535,0,0,0,1.778.086,3.715,3.715,0,0,0,2.178-.9h0s4.6-1.9,6.393-9.428c0,0,1.326-1.64,1.292-2.062l-2.764,1.18a4.953,4.953,0,0,1,.2,3.651s-.086-3.578-.62-3.491c-.108,0-1.434.689-1.434.689s1.623,3.474.4,6c0,0,.465-4.279-.9-5.743l-1.946,1.132s1.9,3.59.611,6.518c0,0,.332-4.49-1.02-6.238l-1.765,1.373s1.787,3.534.7,5.962c0,0-.142-5.226-1.081-5.6a10.593,10.593,0,0,0-1.774,1.916s1.218,2.583.461,3.922c0,0-.465-3.483-.861-3.5a11.588,11.588,0,0,0-1.7,3.874,8.386,8.386,0,0,1,1.322-4.111,4.611,4.611,0,0,0-2.351,1.218s.237-1.632,2.729-1.774a11.768,11.768,0,0,1,1.61-1.855,10.094,10.094,0,0,0-3.982.461s1.322-1.541,4.438-.861l1.722-1.421s-3.263-.43-4.649.047c0,0,1.593-1.365,5.119-.37l1.894-1.137a17.21,17.21,0,0,0-4.438-.383s1.748-.943,4.994.082l1.356-.611s-2.041-.4-2.635-.461-.629-.228-.629-.228a7.043,7.043,0,0,1,3.827.43A17.473,17.473,0,0,0,563.008,807.442Z" transform="translate(-338.594 -478.548)"/><ellipse class="a" cx="11.593" cy="1.959" rx="11.593" ry="1.959" transform="translate(201.538 341.374)"/><path class="e" d="M861.122,774.842s-16.359-.986-14.448,10.491a2.8,2.8,0,0,0,1.455,2.949s.03-.861,1.679-.564a7.581,7.581,0,0,0,1.782.086,3.676,3.676,0,0,0,2.174-.9h0s4.606-1.9,6.393-9.424c0,0,1.326-1.644,1.292-2.066l-2.781,1.205a4.967,4.967,0,0,1,.2,3.651s-.09-3.582-.62-3.5c-.108,0-1.438.689-1.438.689s1.623,3.474.4,6c0,0,.465-4.279-.908-5.747l-1.946,1.137s1.9,3.586.611,6.513c0,0,.331-4.49-1.02-6.238l-1.761,1.365s1.782,3.539.693,5.967c0,0-.142-5.231-1.076-5.622a10.8,10.8,0,0,0-1.778,1.92s1.223,2.583.465,3.918c0,0-.465-3.478-.861-3.5a11.589,11.589,0,0,0-1.7,3.875,8.372,8.372,0,0,1,1.326-4.111,4.632,4.632,0,0,0-2.355,1.218s.241-1.627,2.734-1.774a11.763,11.763,0,0,1,1.61-1.855,10.119,10.119,0,0,0-3.986.461s1.326-1.541,4.438-.839l1.722-1.421s-3.267-.43-4.649.047c0,0,1.593-1.36,5.119-.37l1.894-1.132a17.049,17.049,0,0,0-4.443-.383s1.748-.943,5,.078l1.356-.607s-2.041-.4-2.639-.465-.629-.228-.629-.228a7.056,7.056,0,0,1,3.831.43A17.5,17.5,0,0,0,861.122,774.842Z" transform="translate(-508.372 -459.983)"/><ellipse class="a" cx="11.593" cy="1.959" rx="11.593" ry="1.959" transform="translate(329.873 327.34)"/><ellipse class="a" cx="33.385" cy="5.476" rx="33.385" ry="5.476" transform="translate(331.724 182.581)"/><path class="k" d="M883.937,148.856a17.921,17.921,0,0,0,0-9.152v-4.3s1.558-8.442-5.381-13.858l-4.606-4.06s-2.583-2.213-3.328-2.355a3.378,3.378,0,0,0-.431-.065l-.138-.077a13.868,13.868,0,0,1-1.007-2.122,1.967,1.967,0,0,0,1.64-.56,2.153,2.153,0,0,0,.387-.646h0c.267-.6.31-1.322.538-1.959a4.572,4.572,0,0,1,.861-1.408c-.047.077-.095.151-.138.228.65-.809,1.5-1.507,2.109-2.363a5.149,5.149,0,0,0,.336-.525l-.09.108a11.831,11.831,0,0,0,1.352-4.6,4.15,4.15,0,0,0,.026-1.644,5.48,5.48,0,0,0-.461-1.042c-1-2.066-.977-4.658-2.583-6.307a7.721,7.721,0,0,0-4.735-1.825A12.219,12.219,0,0,1,863.3,89.09a5.4,5.4,0,0,0-1.352-.745,1.115,1.115,0,0,0-1.33.5.862.862,0,0,1-.177.357.573.573,0,0,1-.512.03l-2.282-.611.026.116h-.056l.082.362a.2.2,0,0,1,.215.125l-.366.564a5.653,5.653,0,0,1-2.062-.43.978.978,0,0,0,0,.112h-.03c-.043.646.689,1.063.913,1.67a1.266,1.266,0,0,1,0,.818,1.859,1.859,0,0,1-.431.654c-.814.8-1.847.641-2.781,1.149a.594.594,0,0,0-.34.375.288.288,0,0,0-.03.207.482.482,0,0,0,.189.237,4.307,4.307,0,0,0,.887.551l-.267.258a10.22,10.22,0,0,0,3.53,16.665c.034.177.06.357.086.551v.052l.026.245-3.078,1.291a2.449,2.449,0,0,1-2.2-1.416c-.715-1.481-3.242,0-3.242,0s-7.719-.581-10.573.839c0,0-4.606-1.933-5.252-2.062s-1.623-.646-2.079-.517-1.037-.861-1.36-.775-.43-.641-1.49-.9-1.429.065-2.583-1.1-10.638-5.734-10.638-5.734l-4.279-3.483-4.542-3.608-.082.151c-.026-.108-.056-.22-.086-.336a43.03,43.03,0,0,0-1.683-5.3c-.293-.7-.43-1.58-.814-1.115-.241.28-.654-.331-1.292-.745a1.072,1.072,0,0,0-1.6.465h0c-3.534,5.54-4.8,5.941-2.751,7.969,1.821,1.808,3.035,3.405,4.524,3.874l.177.056a.249.249,0,0,1-.1,0l8.61,10.31s6.225,5.416,10.508,7.155,3.956,2.256,3.956,2.256,12.971,6.574,14.981,6.457,1.623,13.47.779,15.661-2.2,18.046-2.2,18.046-1.292,3.349.065,5.67a35.775,35.775,0,0,1,.03,5.506,18.893,18.893,0,0,0-3.143,8.093,4.624,4.624,0,0,1-.052.491,1.115,1.115,0,0,1-.306.25s.112-.026.288-.086a16.361,16.361,0,0,1-.861,3.874,15.786,15.786,0,0,0-1.059,5.6v10.242l-.857,6.35s-1.037,4.809,0,5.928a2.725,2.725,0,0,1,.568,1.976,3.659,3.659,0,0,0,.663,2.3,1.748,1.748,0,0,1,.431,1.481c-.344,1.115.508,12.971.508,12.971s-.25,3.267-.594,3.444.577,3.754.577,3.754-3.5,2.923-2.613,4.473l.9,1.373-.237.232-.146.146a1.364,1.364,0,0,0-.891-.168,33.42,33.42,0,0,1-3.526,3.138,38.211,38.211,0,0,1-5.881,2.794l-3.392.276h-.065s-1.623-.151-.715,2.363,9.04,1.722,9.04,1.722l4.735-.749s8.472.039,10.9-.5c1.016-.228,1.257-.766,1.192-1.317h0l-.026-.026a3.385,3.385,0,0,0-.693-1.425.674.674,0,0,0-.06-.073l.155-1.722c3.595-2.071-1.016-6.148-1.016-6.148a41.093,41.093,0,0,1,2.389-4.55c.814-1.106.809-17.53.809-17.53s.43-5.932-.693-7.318a2.476,2.476,0,0,1,1.21-2.234c.8-.547,3.22-8.076,5.119-14.327l1.2,7.366s-.258,3.521.521,4.555a1.752,1.752,0,0,1,.318,1.369,6.091,6.091,0,0,0,.177,2.983,1.929,1.929,0,0,0,.624,1.059c.693.344.736,1.571.994,1.83s1.86-.366,1.946.577a21.067,21.067,0,0,1,0,2.493l.521,15.3s-.861,1.291-1.037,4.641a6,6,0,0,1-.624,2.738,1.4,1.4,0,0,0,.129,1.645l.151.172-.641.5a1.4,1.4,0,0,0-.4,1.722,1.382,1.382,0,0,0-.4,1.485,1.719,1.719,0,0,0,.112.241,2.424,2.424,0,0,0-1.292.637,10.591,10.591,0,0,1-2.282,2.3,43,43,0,0,0-3.642,3.117,5.226,5.226,0,0,1-2.127,1.722,3.443,3.443,0,0,1-.641.189c-1.722.349-1.167,2.131.215,2.411s5.967,1.7,9.536.861a3.332,3.332,0,0,0,2.613-.362,35.984,35.984,0,0,1,5.093-1.722s1.946,0,2.2-.775a2.963,2.963,0,0,0,.112-.753l.056-.052-.052-.047a10.151,10.151,0,0,0-.133-1.722c-.047-.293-.1-.56-.155-.771-.168-.646-.474-1.477-.607-1.83a.655.655,0,0,0,.06-.09c.74-1.253-.491-4.3-.491-4.3a8.227,8.227,0,0,1,1.468-1.722c.693-.512,2.51-13.918,2.51-13.918s-.086-3.444.861-4.985-1.292-10.913-1.292-10.913-.951-2.152-.6-2.923-.349-3.608-.349-3.608v-3.384a3.719,3.719,0,0,0-.2-1.188,5.651,5.651,0,0,1-.233-3.444c.607-1.545,1.989-11.085,1.989-11.085s-1.081-4.206.5-7.555a7.225,7.225,0,0,1,.431-.779c1.171-1.843.822-5.114.245-7.749-.09-.409-.185-.8-.28-1.175-.043-.159-.086-.31-.125-.461l.185-.077a5.794,5.794,0,0,1,.056-.68,4.735,4.735,0,0,0,3.121-2.152s3.956-4.447,7.461-6.315,3.763-4.576,3.763-4.576c-.521-.9.926-4.576.926-4.576ZM870.161,115.113Zm2.381,39.67-3.745,4.344a.089.089,0,0,1,0-.026c-.973-1.352.908-4.382.908-4.382l3.1-6.935a4.2,4.2,0,0,1-.4,2.049c-.861,1.162,1.554,3.1,1.554,3.1-1.3-.013-1.425,1.855-1.425,1.855Z" transform="translate(-479.958 -68.781)"/><path class="l" d="M807.858,99.733l-2.041,3.965a7.9,7.9,0,0,1-1.9-.4,7.219,7.219,0,0,1-4.469-3.874,5.619,5.619,0,0,1,2.6-7.413c1.408-.766,2.712-1.649,3.767.861a43.661,43.661,0,0,1,1.662,5.261C807.712,99.092,807.858,99.733,807.858,99.733Z" transform="translate(-481.24 -70.668)"/><path class="l" d="M949.331,142.172l-3.263,4.869s-15.438,7.362-12.484-1.292a19.5,19.5,0,0,0,1.218-8.528v-.052a6.732,6.732,0,0,0-1.21-3.444s15.046-7.7,12.807-2.432a7.318,7.318,0,0,0-.534,3.466,11.8,11.8,0,0,0,1.623,4.809A15.928,15.928,0,0,0,949.331,142.172Z" transform="translate(-557.742 -92.443)"/><path class="m" d="M914.28,322.576s2.221,9.307,1.291,10.844-.861,4.951-.861,4.951-1.8,13.324-2.48,13.836a8.18,8.18,0,0,0-1.451,1.722s1.218,3.013.486,4.262a1.012,1.012,0,0,1-.486.43c-1.145.482-5.373-1.657-7.779-2.97a1.326,1.326,0,0,1-.637-.762,1.356,1.356,0,0,1,.392-1.472,1.4,1.4,0,0,1,.392-1.722l.633-.491-.146-.172a1.4,1.4,0,0,1-.129-1.636,6.037,6.037,0,0,0,.616-2.716c.172-3.332,1.025-4.611,1.025-4.611l-.512-15.2a21.8,21.8,0,0,0,0-2.475c-.086-.938-1.666-.319-1.92-.577s-.3-1.472-.982-1.817a1.912,1.912,0,0,1-.62-1.05,6.122,6.122,0,0,1-.177-2.966,1.748,1.748,0,0,0-.314-1.36c-.771-1.025-.512-4.525-.512-4.525l-1.18-7.318c-1.877,6.212-4.266,13.694-5.054,14.237a2.462,2.462,0,0,0-1.2,2.221c1.111,1.365.685,7.258.685,7.258s0,16.307-.8,17.418a42.454,42.454,0,0,0-2.359,4.525s4.576,4.073.977,6.126l-.039.022c-3.672,2.049-11.27-3.668-11.27-3.668l.792-.792.232-.232-.861-1.369c-.883-1.537,2.583-4.438,2.583-4.438s-.921-3.586-.581-3.758.581-3.418.581-3.418-.839-11.783-.5-12.889a1.722,1.722,0,0,0-.4-1.472,3.676,3.676,0,0,1-.654-2.286,2.721,2.721,0,0,0-.56-1.963c-1.025-1.111,0-5.893,0-5.893l.861-6.32V298.021a15.927,15.927,0,0,1,1.033-5.648,17.048,17.048,0,0,0,.93-4.546,19.087,19.087,0,0,1,3.19-8.179c.62-.947,1.081-1.515,1.081-1.515l27.324-1.072s.43,1.218.861,2.91c.095.37.189.758.276,1.167.573,2.626.917,5.876-.241,7.71a6.078,6.078,0,0,0-.43.771c-1.563,3.328-.5,7.508-.5,7.508s-1.365,9.471-1.963,11.016a5.528,5.528,0,0,0,.232,3.4,3.784,3.784,0,0,1,.194,1.18v3.362s.685,2.815.344,3.586S914.28,322.576,914.28,322.576Z" transform="translate(-527.366 -176.506)"/><path class="g" d="M958.927,294.8a7.081,7.081,0,0,0-.43.771l-1.537-.086c.146-.792-.9-8.218-.9-8.218l3.1-.177C959.736,289.733,960.085,292.988,958.927,294.8Z" transform="translate(-570.756 -182.218)"/><path class="m" d="M959.517,294.25a6.067,6.067,0,0,0-.43.771l-1.541-.086c.151-.792-.9-8.222-.9-8.222l3.1-.172C960.331,289.166,960.675,292.416,959.517,294.25Z" transform="translate(-571.092 -181.905)"/><path class="n" d="M959.517,294.25a6.067,6.067,0,0,0-.43.771l-1.541-.086c.151-.792-.9-8.222-.9-8.222l3.1-.172C960.331,289.166,960.675,292.416,959.517,294.25Z" transform="translate(-571.092 -181.905)"/><path class="g" d="M941.023,461.086a1.011,1.011,0,0,1-.487.43c-1.145.482-5.373-1.657-7.779-2.97a1.326,1.326,0,0,1-.637-.762c1.369-.25,2.269,1.292,2.269,1.292a2.019,2.019,0,0,1,2.815.684c1.175,1.722,3.694,1,3.694,1S940.949,460.875,941.023,461.086Z" transform="translate(-557.122 -279.414)"/><path class="o" d="M927.434,466.652c-.258.766-2.178.766-2.178.766a40.9,40.9,0,0,0-4.977,1.752,3.4,3.4,0,0,1-2.583.362c-3.526.814-8.05-.594-9.415-.861s-1.9-2.049-.215-2.389a3.372,3.372,0,0,0,.633-.194,5.141,5.141,0,0,0,2.1-1.722,43.541,43.541,0,0,1,3.595-3.1,10.4,10.4,0,0,0,2.256-2.282c2.006-1.774,3.444.663,3.444.663a2.019,2.019,0,0,1,2.815.685c1.175,1.722,3.694,1,3.694,1s.43,1.154.663,1.985c.052.211.108.478.155.771A6.737,6.737,0,0,1,927.434,466.652Z" transform="translate(-542.823 -279.744)"/><circle class="p" cx="0.237" cy="0.237" r="0.237" transform="translate(378.502 181.035)"/><circle class="p" cx="0.237" cy="0.237" r="0.237" transform="translate(376.496 182.912)"/><circle class="p" cx="0.237" cy="0.237" r="0.237" transform="translate(374.455 184.6)"/><circle class="p" cx="0.237" cy="0.237" r="0.237" transform="translate(375.51 183.846)"/><circle class="p" cx="0.237" cy="0.237" r="0.237" transform="translate(377.542 181.913)"/><path class="q" d="M927.434,474.256c-.258.766-2.178.766-2.178.766a40.908,40.908,0,0,0-4.977,1.752,3.4,3.4,0,0,1-2.583.362c-3.526.814-8.05-.594-9.415-.861s-1.9-2.049-.215-2.389a3.377,3.377,0,0,0,.633-.194,16.361,16.361,0,0,0,4.619.861c3.478.146,6.234,0,6.234,0l3.521-1.132a5.893,5.893,0,0,1,2.178-.792,5.6,5.6,0,0,0,2.152-.938,6.737,6.737,0,0,1,.03,2.566Z" transform="translate(-542.823 -287.349)"/><path class="r" d="M933.316,478.543a2.9,2.9,0,0,1-.585-.06l.052-.25a3.7,3.7,0,0,0,2.109-.293,10.129,10.129,0,0,0,.934-.431,10.861,10.861,0,0,1,1.111-.486l.349-.121c.194-.065.387-.129.573-.211.108-.043.211-.095.314-.142a3.5,3.5,0,0,1,.792-.3,3.687,3.687,0,0,1,.43-.056,3.657,3.657,0,0,0,.387-.047,3.365,3.365,0,0,0,.74-.276,3.592,3.592,0,0,1,.8-.293l.189-.034a.908.908,0,0,0,.551-.2l.185.177a1.149,1.149,0,0,1-.7.28l-.176.03a3.365,3.365,0,0,0-.74.276,3.6,3.6,0,0,1-.8.293,2.844,2.844,0,0,1-.43.052,3.76,3.76,0,0,0-.4.052,3.254,3.254,0,0,0-.732.284l-.323.146c-.2.082-.4.151-.594.215l-.34.121c-.37.138-.736.31-1.093.474s-.624.3-.947.43a4.555,4.555,0,0,1-1.657.375Z" transform="translate(-557.47 -289.427)"/><path class="g" d="M936,380.42a6.21,6.21,0,0,1,4.8-2.54,16.448,16.448,0,0,0,4.331-.34,10.751,10.751,0,0,1-3.285,1.291A55.515,55.515,0,0,0,936,380.42Z" transform="translate(-559.332 -233.73)"/><path class="g" d="M938.38,383.923a7.137,7.137,0,0,1,2.518-1.154c.917-.043,1.722-.129,1.722-.129a4.863,4.863,0,0,1-1.408.685C940.429,383.54,938.38,383.923,938.38,383.923Z" transform="translate(-560.687 -236.634)"/><path class="g" d="M939.17,387.4s2.415.194,2.437.835" transform="translate(-561.137 -239.345)"/><path class="g" d="M887,297.806c.125.022,2.277-2.243,2.428-3.138a2.2,2.2,0,0,1,.939-1.378s1.39.555.151,2.256A6.9,6.9,0,0,1,887,297.806Z" transform="translate(-531.426 -185.749)"/><path class="g" d="M946.877,131.237c-.491,1.162-.926,1.248-.831,2.376a8.56,8.56,0,0,1-1.954,1.537c-1.528.908-3.19,2.682-5.093,2.682a10.1,10.1,0,0,1-3.72-.7,6.732,6.732,0,0,0-1.21-3.444S949.107,125.972,946.877,131.237Z" transform="translate(-558.233 -92.413)"/><path class="l" d="M942.233,110.681A10.181,10.181,0,1,1,932.051,100.5,10.181,10.181,0,0,1,942.233,110.681Z" transform="translate(-551.285 -75.955)"/><path class="g" d="M949.331,152.451l-3.263,4.869s-15.438,7.362-12.484-1.292A19.5,19.5,0,0,0,934.8,147.5h.026a8.074,8.074,0,0,1,.306,1.963c.047,1.326.082,3.013,3.379,3.565a9.211,9.211,0,0,0,8.967-3.19A15.929,15.929,0,0,0,949.331,152.451Z" transform="translate(-557.742 -102.722)"/><path class="g" d="M814.29,108.83l-2.041,3.965a7.9,7.9,0,0,1-1.9-.4l-.177-.211c.835.319,3.651-5,3.651-5l.09.073C814.144,108.189,814.29,108.83,814.29,108.83Z" transform="translate(-487.671 -79.765)"/><path class="g" d="M924.339,279.992c-6.591,2.863-29.4.43-29.4.43a2.878,2.878,0,0,0,.116-.745c.62-.947,1.081-1.515,1.081-1.515l27.324-1.072S923.9,278.3,924.339,279.992Z" transform="translate(-535.948 -176.523)"/><path class="s" d="M865.152,125.122l-3.039,1.291A2.428,2.428,0,0,1,859.934,125c-.7-1.472-3.2,0-3.2,0s-7.624-.577-10.44.835c0,0-4.546-1.924-5.166-2.049s-1.6-.641-2.049-.512-1.025-.835-1.343-.771-.452-.641-1.477-.9-1.408.065-2.561-1.089-10.5-5.7-10.5-5.7l-4.227-3.444-4.482-3.586s-2.82,5.312-3.651,4.994l8.515,10.246s6.148,5.381,10.375,7.107,3.9,2.243,3.9,2.243,12.812,6.531,14.8,6.406,1.6,13.384.766,15.562-2.174,17.93-2.174,17.93-1.292,3.328.06,5.635c0,0,.323,4.735,0,5.571,0,0,22.95,2.454,29.459-.43,0,0,.96-10.629,0-11.976s.9-4.352.9-4.352l4.068-9.178,9.979-10.061s1.537-8.39-5.312-13.776l-4.55-4.034s-2.544-2.2-3.285-2.338-.469,0-.469,0a9.211,9.211,0,0,1-9.04,3.3c-3.3-.555-3.332-2.234-3.379-3.565a8.076,8.076,0,0,0-.3-1.95Z" transform="translate(-488.053 -80.107)"/><path class="g" d="M943.686,228.13s-14.09.577-16.906,5a13.987,13.987,0,0,1,6.914-1.218C936.957,232.413,943.686,228.13,943.686,228.13Z" transform="translate(-554.081 -148.641)"/><path class="g" d="M929.9,259.769s6.66.431,8.072-.96,1.412-2.239,1.412-2.239Z" transform="translate(-555.858 -164.837)"/><path class="g" d="M966.287,196.6s-5.635,6.66,1.218,9.54Z" transform="translate(-575.34 -130.684)"/><path class="g" d="M891.67,166.7s2.049,4.18,3.074,4.46Z" transform="translate(-534.086 -113.656)"/><path class="g" d="M875.61,162.53s5.123,4.611,6.083,5.058C881.693,167.588,876.376,162.53,875.61,162.53Z" transform="translate(-524.94 -111.281)"/><path class="g" d="M919.345,152.27s-4.933,7.361-1.722,11.847C917.6,164.117,915.824,158.8,919.345,152.27Z" transform="translate(-548.248 -105.438)"/><path class="l" d="M930.805,276.418l-1.507,1.416-.211.2-1.743,1.649c-.129.095-.25.189-.375.276-7.1,5.093-8.528-2.643-8.528-2.643s-3.138,2.049-3.586.383,7.318-4.034,8.451-3.9a1.494,1.494,0,0,0,.31,0,4.868,4.868,0,0,0,1.593-.564c.116-.06.232-.121.344-.185a12.742,12.742,0,0,0,1.149-.723Z" transform="translate(-547.279 -173.807)"/><path class="g" d="M946.671,110.68a10.182,10.182,0,0,1-4.978,8.753,5.949,5.949,0,0,1-.369-.741c-.366-.861-.59-1.761-.956-2.613a8.155,8.155,0,0,0-1.722-2.493,1.089,1.089,0,0,0-.43-.314,1.236,1.236,0,0,0-.934.258,4.227,4.227,0,0,1-1.421.624,1.511,1.511,0,0,1-1.425-.431,2.136,2.136,0,0,1-.224-1.778,22.075,22.075,0,0,0,.663-3.973,3.92,3.92,0,0,0-1.679-3.47c-1.033-.585-2.316-.431-3.465-.753a3.728,3.728,0,0,1-.521-.181,10.186,10.186,0,0,1,17.474,7.112Z" transform="translate(-555.465 -75.953)"/><path class="t" d="M927.129,96.7c-.185.1-.388.276-.331.482a.474.474,0,0,0,.185.237,4.408,4.408,0,0,0,1.61.827c1.149.31,2.437.164,3.47.753a3.912,3.912,0,0,1,1.679,3.465,23.213,23.213,0,0,1-.667,3.973,2.153,2.153,0,0,0,.228,1.782,1.52,1.52,0,0,0,1.425.431,4.2,4.2,0,0,0,1.416-.62,1.227,1.227,0,0,1,.934-.258,1.136,1.136,0,0,1,.456.31,8.083,8.083,0,0,1,1.722,2.5c.37.861.594,1.756.956,2.613a4.214,4.214,0,0,0,1.722,2.127,2.153,2.153,0,0,0,2.583-.271c.594-.654.577-1.645.861-2.484.508-1.451,1.929-2.363,2.815-3.616a11.115,11.115,0,0,0,1.546-4.89,4.107,4.107,0,0,0,.026-1.636,5.927,5.927,0,0,0-.452-1.033c-.99-2.049-.969-4.628-2.549-6.268a7.616,7.616,0,0,0-4.684-1.808,12.039,12.039,0,0,1-4.929-1.227,5.425,5.425,0,0,0-1.334-.74,1.1,1.1,0,0,0-1.313.491.862.862,0,0,1-.177.357.56.56,0,0,1-.5.03l-2.256-.607.258,1.137a5.631,5.631,0,0,1-2.394-.43c-.043.641.68,1.059.9,1.657a1.532,1.532,0,0,1-.431,1.563C929.075,96.36,928.05,96.2,927.129,96.7Z" transform="translate(-554.086 -70.709)"/><path class="g" d="M891.27,454.784l-.09,1.025-.039.022c-3.672,2.049-11.27-3.668-11.27-3.668l.792-.792a1.378,1.378,0,0,1,.344,1.068l1.554.086,1.855,2.006s5.024.581,6.384.254Z" transform="translate(-527.366 -275.776)"/><path class="o" d="M872.248,460.325c-2.389.53-10.762.491-10.762.491l-4.675.745s-8.046.771-8.941-1.722.7-2.346.7-2.346h.06l3.349-.271a37.7,37.7,0,0,0,5.807-2.777,33.5,33.5,0,0,0,3.478-3.117s1.4-.271,1.373,1.347l1.554.086,1.855,2s5.024.585,6.384.258h.469l-.215,2.475.06.077C873.045,457.957,874.384,459.847,872.248,460.325Z" transform="translate(-508.986 -275.742)"/><circle class="p" cx="0.237" cy="0.237" r="0.237" transform="translate(354.355 178.125)"/><circle class="p" cx="0.237" cy="0.237" r="0.237" transform="translate(348.337 180.738)"/><circle class="p" cx="0.237" cy="0.237" r="0.237" transform="translate(345.237 181.681)"/><circle class="p" cx="0.237" cy="0.237" r="0.237" transform="translate(349.917 180.239)"/><circle class="p" cx="0.237" cy="0.237" r="0.237" transform="translate(346.783 181.212)"/><circle class="p" cx="0.237" cy="0.237" r="0.237" transform="translate(351.514 179.498)"/><circle class="p" cx="0.237" cy="0.237" r="0.237" transform="translate(353.094 178.814)"/><path class="q" d="M872.248,468.5c-2.389.53-10.762.491-10.762.491l-4.675.745s-8.046.771-8.941-1.722.7-2.346.7-2.346h.06a4.3,4.3,0,0,0,3.565,1.455l5.786.237,6-.43s5.6-.172,6.531-.362a13.568,13.568,0,0,0,2.239-.822C873.045,466.133,874.384,468.023,872.248,468.5Z" transform="translate(-508.986 -283.918)"/><path class="r" d="M868.747,470.94a3.776,3.776,0,0,1-.947-.116l.086-.232a4.645,4.645,0,0,0,2.385-.108c.284-.073.564-.155.861-.241a9.763,9.763,0,0,1,4.154-.469h.185a39.325,39.325,0,0,0,7.684-.344,2.858,2.858,0,0,0,1.645-.659l.185.181a3.117,3.117,0,0,1-1.787.732,39.912,39.912,0,0,1-7.749.344h-.181a12.573,12.573,0,0,0-2.544.073,13.214,13.214,0,0,0-1.528.383c-.284.086-.568.172-.861.245A6.4,6.4,0,0,1,868.747,470.94Z" transform="translate(-520.492 -285.686)"/><path class="g" d="M944.982,276.418l-1.507,1.416-3.745-4.791a12.742,12.742,0,0,0,1.149-.723Z" transform="translate(-561.456 -173.807)"/><path class="s" d="M961.606,190.5l2.945,4.1v4.3a17.928,17.928,0,0,1,0,9.1l.151,3.969s-1.429,3.651-.917,4.546c0,0-.258,2.691-3.715,4.55s-7.366,6.242-7.366,6.242-1.472,2.82-5.441,2.178l-3.78,1.6-4.352-5.571,5.889-3.2s2.049-2.755,3.267-2.626l4.994-5.816s.129-1.855,1.408-1.855c0,0-2.368-1.92-1.537-3.074s.129-6.277.129-6.277Z" transform="translate(-561.115 -127.21)"/><path class="g" d="M978.55,233.742s6.724-.125,7.555,1.6S980.6,232.782,978.55,233.742Z" transform="translate(-583.564 -151.756)"/><path class="g" d="M940.722,278.893a1.764,1.764,0,0,1-.026.336,2.264,2.264,0,0,1-2.118,1.924h-.121a2.26,2.26,0,0,1-2.26-2.26,2.317,2.317,0,0,1,.125-.736,3.9,3.9,0,0,1-1.1-3.173,4.868,4.868,0,0,0,1.593-.564,10.59,10.59,0,0,0,1.115,2.277,2.15,2.15,0,0,1,.525-.065,2.26,2.26,0,0,1,2.264,2.26Z" transform="translate(-558.888 -175.003)"/><path class="p" d="M937.357,273.26s-1.515.34-1.515.616-.34,2.777,1.322,3.8,1.5-1.429,1.5-1.429S937.228,274.048,937.357,273.26Z" transform="translate(-559.226 -174.342)"/><circle class="u" cx="2.264" cy="2.264" r="2.264" transform="translate(377.563 101.626)"/><circle class="q" cx="1.942" cy="1.942" r="1.942" transform="translate(377.886 101.948)"/><path class="g" d="M922.813,286.84a11.214,11.214,0,0,0,10.93,1.455v1.92s-4.1,2.815-7.813,1.111S922.813,286.84,922.813,286.84Z" transform="translate(-551.802 -182.076)"/><path class="g" d="M922.813,285.65a11.2,11.2,0,0,0,10.93,1.442v1.92s-4.1,2.815-7.813,1.111S922.813,285.65,922.813,285.65Z" transform="translate(-551.802 -181.398)"/><path class="m" d="M922.813,285.65a11.2,11.2,0,0,0,10.93,1.442v1.92s-4.1,2.815-7.813,1.111S922.813,285.65,922.813,285.65Z" transform="translate(-551.802 -181.398)"/><path class="n" d="M923.115,285.65a11.214,11.214,0,0,0,10.93,1.455v1.92s-4.111,2.8-7.814,1.111S923.115,285.65,923.115,285.65Z" transform="translate(-551.975 -181.398)"/><path class="g" d="M888,451.32s6.406,1.175,7.344,1.429-.258.706-.258.706S889.218,452.409,888,451.32Z" transform="translate(-531.996 -275.748)"/><path class="g" d="M887.61,439.146c.1,0,4.352-1.2,5.269-3.246" transform="translate(-531.774 -266.966)"/><path class="g" d="M902,386.507s1.722,2.264,2.833,2.2S903.012,386.421,902,386.507Z" transform="translate(-539.969 -238.835)"/><path class="g" d="M904.22,395.24s.723,1.6,1.791,1.089" transform="translate(-541.233 -243.81)"/><path class="n" d="M913.59,313.547l4.542,11.976s.641-7.706-.715-10.013A4,4,0,0,0,913.59,313.547Z" transform="translate(-546.569 -197.276)"/><g class="c" transform="translate(372.656 21.006)"><path d="M938.541,92.646l-.039-.172-.732-.194.082.357A5.246,5.246,0,0,0,938.541,92.646Z" transform="translate(-932.996 -92.28)"/><path d="M933.7,96.488l.078-.069a1.528,1.528,0,0,0,.43-1.558,2.112,2.112,0,0,0-.362-.581,5.6,5.6,0,0,1-1.055-.31c-.043.641.68,1.055.9,1.657a1.291,1.291,0,0,1,0,.861Z" transform="translate(-930.157 -93.242)"/><path d="M942.316,121.8a4.231,4.231,0,0,1-1.722-2.127c-.366-.861-.586-1.765-.956-2.613a8.028,8.028,0,0,0-1.722-2.493,1.089,1.089,0,0,0-.452-.314,1.223,1.223,0,0,0-.934.258,4.3,4.3,0,0,1-1.421.624,1.537,1.537,0,0,1-1.425-.43,2.136,2.136,0,0,1-.224-1.778,22.13,22.13,0,0,0,.667-3.978,3.845,3.845,0,0,0-1.683-3.444c-1.033-.59-2.316-.43-3.444-.753a4.374,4.374,0,0,1-1.61-.827l-.09-.082a2.754,2.754,0,0,0-.28.133c-.185.1-.383.275-.331.478a.512.512,0,0,0,.189.241,4.434,4.434,0,0,0,1.61.822c1.149.314,2.432.168,3.466.758a3.9,3.9,0,0,1,1.683,3.444,23.148,23.148,0,0,1-.667,3.973,2.142,2.142,0,0,0,.224,1.778,1.515,1.515,0,0,0,1.425.43,4.3,4.3,0,0,0,1.421-.62,1.244,1.244,0,0,1,.934-.263,1.132,1.132,0,0,1,.431.314,8.129,8.129,0,0,1,1.722,2.493c.37.861.59,1.761.956,2.613a4.223,4.223,0,0,0,1.722,2.152,2.18,2.18,0,0,0,2.583-.271,2.033,2.033,0,0,0,.383-.641,2.2,2.2,0,0,1-2.454.121Z" transform="translate(-926.681 -98.863)"/><path d="M971.54,134.2c.641-.809,1.481-1.5,2.084-2.351a6.016,6.016,0,0,0,.331-.525A21.324,21.324,0,0,0,971.54,134.2Z" transform="translate(-952.228 -114.513)"/></g><g class="c" transform="translate(246.796 28.592)"><path d="M741.5,109.9H639.645a5.338,5.338,0,0,0-5.325,5.321v64.355a5.338,5.338,0,0,0,5.325,5.321h79.9s2.071,10.991-4.735,12.17c0,0,15.231,1.093,12.571-12.17H741.5a5.334,5.334,0,0,0,5.321-5.321V115.221A5.334,5.334,0,0,0,741.5,109.9Z" transform="translate(-634.32 -109.9)"/><g class="d" transform="translate(14.994 17.082)"><rect width="82.509" height="5.028" rx="2.514"/><rect width="68.083" height="5.028" rx="2.514" transform="translate(0 22.472)"/><rect width="49.012" height="5.028" rx="2.514" transform="translate(0 11.236)"/></g></g><path class="b" d="M744.591,107.83H642.735a5.342,5.342,0,0,0-5.325,5.325V177.51a5.338,5.338,0,0,0,5.325,5.321h79.9s2.071,10.991-4.735,12.17c0,0,15.231,1.093,12.571-12.17h14.116a5.334,5.334,0,0,0,5.321-5.321V113.155a5.338,5.338,0,0,0-5.317-5.325Z" transform="translate(-389.284 -80.129)"/><g class="d" transform="translate(263.12 44.783)"><rect class="e" width="82.509" height="5.028" rx="2.514"/><rect class="e" width="68.083" height="5.028" rx="2.514" transform="translate(0 22.476)"/><rect class="e" width="49.012" height="5.028" rx="2.514" transform="translate(0 11.24)"/></g><path class="e" d="M136.6,596.48s1.533,2.006-.71,5.037-4.094,5.6-3.345,7.478c0,0,3.384-5.627,6.139-5.7S139.632,599.864,136.6,596.48Z" transform="translate(-101.666 -358.417)"/><path class="g" d="M136.717,596.48a2.53,2.53,0,0,1,.31.629c2.691,3.16,4.12,6.1,1.537,6.182-2.406.069-5.291,4.37-5.984,5.459a.785.785,0,0,0,.082.245s3.384-5.627,6.139-5.7S139.748,599.864,136.717,596.48Z" transform="translate(-101.782 -358.417)"/><path class="v" d="M148.343,601.815c0,.706-.077,1.292-.176,1.292s-.177-.573-.177-1.292.1-.375.2-.375S148.343,601.109,148.343,601.815Z" transform="translate(-110.558 -361.195)"/><path class="v" d="M149.485,603.743c-.62.34-1.162.542-1.21.456s.43-.431,1.037-.766.379-.09.431,0S150.105,603.407,149.485,603.743Z" transform="translate(-110.719 -362.279)"/><path class="e" d="M118.8,596.48s-1.533,2.006.71,5.037,4.094,5.6,3.345,7.478c0,0-3.384-5.627-6.139-5.7S115.765,599.864,118.8,596.48Z" transform="translate(-91.971 -358.417)"/><path class="g" d="M118.8,596.48a2.53,2.53,0,0,0-.31.629c-2.691,3.16-4.12,6.1-1.537,6.182,2.406.069,5.291,4.37,5.984,5.459-.022.082-.052.164-.082.245,0,0-3.384-5.627-6.139-5.7S115.765,599.864,118.8,596.48Z" transform="translate(-91.971 -358.417)"/><path class="v" d="M116.73,601.815c0,.706.077,1.292.176,1.292s.177-.573.177-1.292-.1-.375-.2-.375S116.73,601.109,116.73,601.815Z" transform="translate(-92.755 -361.195)"/><path class="v" d="M113.943,603.743c.62.34,1.162.542,1.21.456s-.43-.431-1.038-.766-.379-.09-.43,0S113.319,603.407,113.943,603.743Z" transform="translate(-90.95 -362.279)"/><ellipse class="a" cx="16.049" cy="2.462" rx="16.049" ry="2.462" transform="translate(14.831 261.009)"/><path class="w" d="M130.115,618.034l-.077.624-.108.887-.047.37-.108.883-.043.37-.108.887-1.231,10.069c-.108.9-1.576,1.6-3.349,1.6h-6.4c-1.774,0-3.237-.7-3.349-1.6l-1.231-10.065-.108-.887-.043-.37-.108-.882-.047-.37-.108-.887-.077-.624c-.06-.508.736-.938,1.722-.938h13.048C129.362,617.1,130.159,617.526,130.115,618.034Z" transform="translate(-90.957 -370.16)"/><path class="x" d="M69.063,577.23l-.108.887H52.808l-.108-.887Z" transform="translate(-30.004 -328.732)"/><path class="x" d="M69.112,580.15l-.108.883H53.162l-.112-.883Z" transform="translate(-30.203 -330.395)"/><path class="x" d="M69.162,583.06l-.108.887H53.518l-.108-.887Z" transform="translate(-30.408 -332.052)"/><ellipse class="a" cx="36.179" cy="5.937" rx="36.179" ry="5.937" transform="translate(241.841 333.879)"/><g class="c" transform="translate(203.78 157.508)"><path d="M650.544,409.36H540.169a5.786,5.786,0,0,0-5.769,5.769v69.741a5.786,5.786,0,0,0,5.769,5.769h86.586s2.243,11.908-5.127,13.186c0,0,16.5,1.184,13.617-13.186h15.3a5.786,5.786,0,0,0,5.769-5.769V415.129a5.786,5.786,0,0,0-5.769-5.769Z" transform="translate(-534.4 -409.36)"/><g class="d" transform="translate(16.247 30.69)"><rect width="89.414" height="5.45" rx="2.725" transform="translate(0 12.179)"/><rect width="38.771" height="5.45" rx="2.725"/></g></g><path class="b" d="M648.325,407.13h-110.4a5.786,5.786,0,0,0-5.769,5.769v69.741a5.786,5.786,0,0,0,5.769,5.769h86.586s2.243,11.908-5.127,13.19c0,0,16.505,1.184,13.621-13.19h15.317a5.786,5.786,0,0,0,5.769-5.769V412.9a5.786,5.786,0,0,0-5.769-5.769Z" transform="translate(-329.344 -250.582)"/><g class="d" transform="translate(219.067 187.239)"><rect class="e" width="89.414" height="5.45" rx="2.725" transform="translate(0 12.179)"/><rect class="e" width="38.771" height="5.45" rx="2.725"/></g><path class="y" d="M634.383,572.106c-.521-2.208-.861-4.15-.861-4.15a8.554,8.554,0,0,0-.96-4.215v-.6h0v-4.447a14.912,14.912,0,0,1,1.124-2.329c.8-1.4,0-6.522,0-6.522s-2.97-7.224-2.247-11.8-6.1-20.35-6.1-20.35a20.015,20.015,0,0,1,.641-4.5,3.486,3.486,0,0,0,.086-.943,1.025,1.025,0,0,0,0-.116v.039c-.1-3.013-2.493-8.687-2.493-8.687l.323-10.793a31.738,31.738,0,0,0-.964-14.912c-.861-2.979-1.425-5.368-1.778-7.207-.039-.211-.078-.431-.112-.6,5.123-.779,9.04-1.429,9.04-1.429s-2.962-12.428-4.968-14.581-3.608-9.04-3.608-9.04-1.046-8.778.641-11.339,1.924-6.987,1.924-6.987,3.874-2.8,4.335-4.038a21.366,21.366,0,0,0,1.292-5.515c0-1.477-.482-2.8-.323-3.573s-1.124-3.728-.482-5.127a3.764,3.764,0,0,0,.258-1.347v-.039h0a19.035,19.035,0,0,0-.34-3.642,10.332,10.332,0,0,0-3.81-2.036l-.086-.336-.215-.861c-.129-.086-.254-.159-.379-.228v-.319l-.039-1.261.607-2.833c1.184-4.934-5.4-5.67-5.4-5.67a3.444,3.444,0,0,0-1.864-1.632c-1.326-.465-.22,7.417.4,7.921a28.6,28.6,0,0,1,2.583,4.064h0l.112.2a2.414,2.414,0,0,0-.3.314l.25,1.722.039.263a7.171,7.171,0,0,0-1.05,1.791,3.824,3.824,0,0,1,.964,2.8,8.508,8.508,0,0,0,.4,3.414c-.069-.082-.917-1-1.761-.775s-3.212.934-3.212.934-1.765.31-1.6.7-1.205,2.1-1.205,2.1l-4.735-4.494c-.043-.133-.095-.267-.138-.409a11.274,11.274,0,0,1-.43-1.967,11.263,11.263,0,0,0,1.515-.482,3.28,3.28,0,0,0,1.292-.839,5.108,5.108,0,0,0,.762-2.045,29.589,29.589,0,0,1,1.761-3.926,12.743,12.743,0,0,0,.947-7.047,4.654,4.654,0,0,0-.728-2.062c-.775-1.068-2.178-1.5-3.2-2.35s-1.679-2.153-2.867-2.785a5.708,5.708,0,0,0-3.6-.31,19.409,19.409,0,0,0-6.72,2.445,3.461,3.461,0,0,1-2.247.74,3.028,3.028,0,0,1-1.623-1.193.079.079,0,0,1,.021-.065l-.052-.06a8.339,8.339,0,0,0-.7,3.517,5.011,5.011,0,0,0,.022.568v.362h0a.863.863,0,0,1-.034.254,1.851,1.851,0,0,1-.431.641,3.37,3.37,0,0,0-.387.525,1.729,1.729,0,0,1,.065-.194,2.82,2.82,0,0,0-.491,1.5,1.481,1.481,0,0,0,.353,1.068,5.172,5.172,0,0,0,.775.624,9.041,9.041,0,0,0,4.3,9.4c.056.133.112.271.164.409a11.32,11.32,0,0,1,.861,5.166,1.875,1.875,0,0,1-.06.379c-.026.125-.116.129-.168.2h0s-7.831.078-9.678-1.593-4.654,4.077-4.654,4.077-2.807.542-3.366,0-3.853-.077-3.853-.077a7.081,7.081,0,0,0-4.873-1.782,14.482,14.482,0,0,0-3.59-2h0l-.086-.03h0a4.038,4.038,0,0,0-1.765-.224s-3.853-3.186-4.977-4.89-6.458-8.046-6.5-8.076v-.306l-.06-.926a3.059,3.059,0,0,1-.478.043c-.03-.09-.065-.2-.108-.319a17.894,17.894,0,0,0-1.137-2.613s0-1.162.34-1.455-.142-4.563-.142-4.563-3.47-8.115-6.578-2.058c0,0-5.876,3.922-.943,8.485,0,0,1.967.951,2.243,1.722.185.491.861,1.86,1.292,2.768l.2.409-.056.047.073.762.03.293c-.93.53-1.558,1.05-1.408,1.446a8.753,8.753,0,0,1,.564,2.1s6.793,8.524,7.676,12.183c0,0,18.292,10.87,24.31,11.645l-1.042,5.437a43.467,43.467,0,0,0-.241,4.426c.078,1.167-.723,6.457-.723,6.457s-1.042,7.749-1.924,8.851-.7,5.739-.7,5.739a39.235,39.235,0,0,1-1.205,6.6,17.3,17.3,0,0,0-.241,6.6s-3.048,6.987,4.253,2.251c0,0,3.586-.224,7.714-.366v.43c0,.53,0,1.106-.026,1.722-.056,4-.078,9.518.1,13.694.323,7.374,2.583,21.977,2.583,21.977v7.318a10.072,10.072,0,0,0-.211,2.1,13.668,13.668,0,0,0,1.976,7.344l.564,4.89a19.148,19.148,0,0,1,1.343,5.166,2.994,2.994,0,0,1-.056.469,3.332,3.332,0,0,0-.065.749c-.073,2.221,1.266,7.534,1.266,7.534s.078,5.36.861,5.67c.685.267-.917,3.091-1.395,3.9a.286.286,0,0,0-.03-.155l-.1.164a3.754,3.754,0,0,0-.25,1.352,1.95,1.95,0,0,0,.891,1.886c1.524.93,2.342,1.722,1.046,2.019a13.9,13.9,0,0,0-1.412.3l-.069-.181a.861.861,0,0,0-.525.938,3.909,3.909,0,0,0,.478,1.817,20.714,20.714,0,0,0,2.152,3.961l.62-.069a3.321,3.321,0,0,1-.357.663,2.558,2.558,0,0,1-.908.8,2.737,2.737,0,0,1-1.1.375,3.1,3.1,0,0,0-2.273,1.106c-.8,1.038-1.292,2.445.28,3.685l5.739,1.98s9.867,1.291,9.346-.934-.861-4.154-.861-4.154a8.747,8.747,0,0,0-.8-3.926,5.257,5.257,0,0,0-.349-.577l.349-.039s.723-4.895,1.683-5.825c.224-.215.276-.379.219-.508.1-.267-.151-.43-.474-.512l-.069.194a4.7,4.7,0,0,0-.96-.108s-.319-2.562.723-3.491a.99.99,0,0,0,.2-.762,4.281,4.281,0,0,0-.108-1.046l-.039.06a37.907,37.907,0,0,0-2.3-6.027s-.082-2.329.564-3.263-.082-12.657-.082-12.657.241-5.67-.482-8.309.883-5.747.883-5.747v-.172l.021-.039s-.039-.349-.095-.891v.052c-.164-1.5-.469-4.219-.693-5.476-.323-1.787.077-10.332.077-10.332l1.447-3.651,2.583,6.294,2.729,8.386a7.135,7.135,0,0,1,1.382,3.565,1.763,1.763,0,0,1,0,.263,5.06,5.06,0,0,0-.03.564,4.968,4.968,0,0,0,.831,2.983s.723,3.961,1.847,4.972a4.478,4.478,0,0,1,1.124,2.949s1.36,5.747,2.006,6.759c.538.861.568,3.19.564,3.9h0v.211s.189,2.053.181,3.78v.616a.186.186,0,0,1,0-.047,6.306,6.306,0,0,1-.168,1.4.145.145,0,0,1-.026.082l.026-.293a14.8,14.8,0,0,0-.431,3.582c-.039,2.066.276,4.512,1.528,5.945,2.153,2.488,3.53,2.178,3.53,2.178s-1.042,3.1-2.329,3.724a.728.728,0,0,0-.133.09,1.339,1.339,0,0,0-.034-.181,1.507,1.507,0,0,0-.374,1.158,8.252,8.252,0,0,0,1.589,4.6,2.505,2.505,0,0,0,1.085.633l-.2.125a4.437,4.437,0,0,1-.43.211,2.079,2.079,0,0,1-.654.168,3.074,3.074,0,0,0-2.273,1.106c-.8,1.033-1.291,2.441.28,3.681l5.739,1.98S634.9,574.323,634.383,572.106Z" transform="translate(-335.545 -236.329)"/><path class="z" d="M658.979,817.583l-5.553-1.98c-1.533-1.24-1.042-2.648-.271-3.685a2.97,2.97,0,0,1,2.2-1.106,2.584,2.584,0,0,0,1.063-.375,2.493,2.493,0,0,0,.861-.805,4.06,4.06,0,0,0,.633-2.152s6.1-1.787,7.749,0a4.586,4.586,0,0,1,.74,1.081,9.041,9.041,0,0,1,.775,3.926s.314,1.942.814,4.154S658.979,817.583,658.979,817.583Z" transform="translate(-397.835 -478.13)"/><path class="z" d="M722.117,811.225l-5.553-1.98c-1.533-1.24-1.046-2.648-.271-3.681a2.94,2.94,0,0,1,2.2-1.106,1.95,1.95,0,0,0,.633-.168,3.259,3.259,0,0,0,.43-.211,3.526,3.526,0,0,0,1.511-2.949s6.1-1.787,7.749,0a4.155,4.155,0,0,1,.581.792,8.785,8.785,0,0,1,.934,4.219s.31,1.942.814,4.154S722.117,811.225,722.117,811.225Z" transform="translate(-433.791 -474.513)"/><path class="g" d="M672.139,807.485a4.593,4.593,0,0,1,.74,1.081h0l-9.139,1.059a4.059,4.059,0,0,0,.633-2.153S670.473,805.7,672.139,807.485Z" transform="translate(-404.279 -478.131)"/><path class="g" d="M734.129,801.913v1.722c-1.416,2.342-8.291,1.83-10.289.654a3.264,3.264,0,0,0,.43-.211,3.525,3.525,0,0,0,1.511-2.949s6.1-1.787,7.749,0A4.164,4.164,0,0,1,734.129,801.913Z" transform="translate(-438.506 -474.513)"/><path class="p" d="M688.85,666.788a15.822,15.822,0,0,0-1.089,2.329v6.135c-1.55,2.583-9.626,1.722-10.715.31s-2.251-5.045-1.007-5.665,2.251-3.728,2.251-3.728-1.322.31-3.418-2.174-1.477-8-1.085-9.32,0-5.747,0-5.747.077-3.1-.547-4.116-1.942-6.755-1.942-6.755a4.59,4.59,0,0,0-1.085-2.953c-1.085-1.012-1.787-4.968-1.787-4.968a5.1,5.1,0,0,1-.788-3.336,6.746,6.746,0,0,0-1.317-4.038l-2.639-8.386-2.488-6.29-1.386,3.646s-.392,8.541-.078,10.332.775,6.522.775,6.522-1.554,3.108-.861,5.747.465,8.309.465,8.309.7,11.727.077,12.657a7.617,7.617,0,0,0-.542,3.263s3.181,6.832,2.152,7.749-.7,3.5-.7,3.5,2.153,0,1.244.93-1.589,5.838-1.589,5.838l-9.389,1.085a19.5,19.5,0,0,1-2.105-3.961c-1.244-2.876.232-2.583,1.485-2.871s.456-1.089-1.016-2.019-.624-3.013-.624-3.013,2.251-3.806,1.477-4.12-.861-5.665-.861-5.665-1.554-6.371-1.167-8.076-1.244-5.825-1.244-5.825l-.542-4.895a13.462,13.462,0,0,1-1.722-9.239v-7.547s-2.152-14.6-2.484-21.977c-.2-4.735-.142-11.171-.077-15.2.039-2.256.077-3.75.077-3.75l33.557-3.5a27.709,27.709,0,0,0,.607,4.981c.34,1.843.861,4.228,1.722,7.211a32.737,32.737,0,0,1,.93,14.908l-.31,10.8s2.953,7.219,2.329,9.708a20.664,20.664,0,0,0-.62,4.5s6.6,15.765,5.9,20.345,2.152,11.8,2.152,11.8S689.624,665.388,688.85,666.788Z" transform="translate(-392.138 -346.754)"/><path class="n" d="M705.71,691.11l10.216-1.36S710.14,695.652,705.71,691.11Z" transform="translate(-428.181 -411.534)"/><path class="g" d="M723.534,666.57s.349,3.612-1.864,4.972C721.674,671.542,725.635,670.918,723.534,666.57Z" transform="translate(-437.27 -398.333)"/><path class="g" d="M708.61,639.88s-8.537,7.026-11.623,6.458S708.61,639.88,708.61,639.88Z" transform="translate(-422.971 -383.133)"/><path class="g" d="M667.472,700.58s-6.483,1.472-6.677,4.077S667.472,700.58,667.472,700.58Z" transform="translate(-402.599 -417.702)"/><path class="n" d="M670.326,775.8s-9.161,1.722-6.561,2.871a46.175,46.175,0,0,0,6.888,2.1S673.589,780.923,670.326,775.8Z" transform="translate(-404.029 -460.54)"/><g class="aa" transform="translate(250.276 232.527)"><path d="M658.521,785.01a1.825,1.825,0,0,1-.835-1.33l-.095.164s-.861,2.1.62,3.013c.172.108.332.215.478.319.276-.052.568-.09.861-.159C660.789,786.715,660,785.94,658.521,785.01Z" transform="translate(-650.911 -697.555)"/><path d="M686.925,783.207c.254-.232.245-.831.09-1.6a4.33,4.33,0,0,0-.521,2.252A1.884,1.884,0,0,1,686.925,783.207Z" transform="translate(-667.511 -696.376)"/><path d="M683.41,695.58a10.443,10.443,0,0,0-.62,2.854,11.242,11.242,0,0,1,.71-1.963S683.466,696.122,683.41,695.58Z" transform="translate(-665.404 -647.382)"/><path d="M732.778,684.971a3.575,3.575,0,0,0,.086-.861c-.116.577-.2,1.115-.254,1.589A4.174,4.174,0,0,1,732.778,684.971Z" transform="translate(-693.776 -640.849)"/><path d="M683.448,757.432a4.949,4.949,0,0,0,.232-1.722,5.85,5.85,0,0,0-.43,2.178A2.1,2.1,0,0,1,683.448,757.432Z" transform="translate(-665.666 -681.626)"/><path d="M670.532,793.72a30.563,30.563,0,0,0-1.068,4.77l-9.389,1.089a19.68,19.68,0,0,1-2.105-3.961c-.108-.254-.194-.478-.263-.685-.564.258-.783.861-.047,2.549a19.866,19.866,0,0,0,2.1,3.961l9.4-1.089s.7-4.89,1.627-5.825C671.242,794.073,670.949,793.841,670.532,793.72Z" transform="translate(-650.825 -703.273)"/><path d="M649.7,660.124s.078,5.36.861,5.67h0c.392-.887.654-1.722.306-1.868-.779-.31-.861-5.67-.861-5.67s-1.55-6.367-1.162-8.076-1.244-5.825-1.244-5.825l-.542-4.89a13.445,13.445,0,0,1-1.722-9.243v-7.534s-2.152-14.6-2.484-21.955c-.2-4.735-.142-11.193-.077-15.2,0-.728.022-1.373.034-1.916l-.267.026s-.043,1.494-.077,3.754c-.069,4.021-.125,10.47.077,15.192.31,7.379,2.484,21.977,2.484,21.977V632.1a13.444,13.444,0,0,0,1.722,9.243l.547,4.86s1.632,4.116,1.244,5.825S649.7,660.124,649.7,660.124Z" transform="translate(-642.403 -583.62)"/><path d="M721.128,797.579a9.04,9.04,0,0,1-1.485-3.689c-.96.861.142,4.223,1.175,5.553,1.085,1.395,9.161,2.251,10.715-.31v-1.481C729.432,799.736,722.169,798.9,721.128,797.579Z" transform="translate(-686.181 -703.369)"/><path d="M749.559,781.989a15.069,15.069,0,0,0-1.089,2.329V785.4c.177-.4.431-.93.779-1.558a4.645,4.645,0,0,0,.34-1.92A.261.261,0,0,0,749.559,781.989Z" transform="translate(-702.809 -696.552)"/><path d="M718.809,769.771a15,15,0,0,0,.766-1.847s-1.322.31-3.418-2.153c-1.528-1.808-1.614-5.222-1.395-7.452-.392,1.317-1.012,6.832,1.085,9.316A5.569,5.569,0,0,0,718.809,769.771Z" transform="translate(-683.385 -683.112)"/><path d="M697.141,688.414a41.5,41.5,0,0,1,.155,4.6,6.7,6.7,0,0,1,.159-.723c.392-1.317,0-5.743,0-5.743s.078-3.108-.542-4.116-1.942-6.759-1.942-6.759a4.575,4.575,0,0,0-1.085-2.949c-1.085-1.007-1.787-4.972-1.787-4.972a5.085,5.085,0,0,1-.779-3.336A6.776,6.776,0,0,0,690,660.38l-2.643-8.39-2.484-6.29-1.4,3.651s0,.461-.047,1.18l1.136-2.966,2.484,6.29,2.652,8.39a6.768,6.768,0,0,1,1.322,4.038,5.085,5.085,0,0,0,.779,3.336s.7,3.961,1.782,4.972a4.6,4.6,0,0,1,1.089,2.949s1.322,5.747,1.942,6.759S697.141,688.414,697.141,688.414Z" transform="translate(-665.768 -618.975)"/></g><path class="ab" d="M720.336,403.321l-.585,2.833.034,1.261.026.934-3.242.331-.362-.672h0a29.667,29.667,0,0,0-2.514-4.064c-.6-.5-1.666-8.386-.383-7.921a3.393,3.393,0,0,1,1.8,1.636S721.481,398.409,720.336,403.321Z" transform="translate(-432.166 -244.245)"/><path class="g" d="M724.443,422.985l-3.242.331-.362-.672h0a2.863,2.863,0,0,1,3.577-.59Z" transform="translate(-436.798 -258.864)"/><path class="q" d="M725.016,424.891l-4.275.99-.086-.637-.245-1.722a2.94,2.94,0,0,1,4.137-.564l.211.861Z" transform="translate(-436.553 -259.237)"/><path class="ab" d="M556.666,395.72l-4.559,2.445-.431-.861c-.43-.908-1.081-2.277-1.257-2.768-.271-.753-2.174-1.722-2.174-1.722-4.774-4.563.913-8.485.913-8.485,3.013-6.057,6.367,2.058,6.367,2.058s.465,4.275.138,4.563-.332,1.455-.332,1.455a17.68,17.68,0,0,1,1.1,2.613C556.592,395.453,556.666,395.72,556.666,395.72Z" transform="translate(-337.417 -236.318)"/><path class="g" d="M563.729,412.805l-4.559,2.445-.431-.861c.641-.534,2.927-2.385,3.676-2.3a5.734,5.734,0,0,0,1.081.03C563.656,412.539,563.729,412.805,563.729,412.805Z" transform="translate(-344.481 -253.403)"/><path class="q" d="M564.4,414.633l-5.123,2.527-.1-1.1-.073-.762s2.97-2.544,3.849-2.45a4.632,4.632,0,0,0,1.339,0l.056.921Z" transform="translate(-344.686 -253.836)"/><path class="ab" d="M676.842,433.856s-22.351,2.523-18.171,1.167c2.906-.947,4.06-2.794,4.3-4.847a11.645,11.645,0,0,0-.835-5.166,22.233,22.233,0,0,0-2-4.038s17.086-9.4,13.668-.861a13.687,13.687,0,0,0-.969,4.047,11.314,11.314,0,0,0,.431,4.094,12.17,12.17,0,0,0,3.569,5.605Z" transform="translate(-401.096 -255.933)"/><path class="g" d="M676.448,420.106a13.689,13.689,0,0,0-.969,4.047c-1.61,1.352-3.375,1.261-5.64,1.261-1.722,0-3.668.43-5.063-.431a22.229,22.229,0,0,0-2-4.038S679.866,411.556,676.448,420.106Z" transform="translate(-403.732 -255.925)"/><circle class="ab" cx="9.243" cy="9.243" r="9.243" transform="translate(256.559 151.598)"/><path class="g" d="M676.842,448.1s-22.351,2.523-18.171,1.167c2.906-.947,4.06-2.794,4.3-4.847a12.192,12.192,0,0,1,4.783-2.536,6.677,6.677,0,0,1,4.051-.065,5.628,5.628,0,0,1,1.472.68,12.17,12.17,0,0,0,3.56,5.6Z" transform="translate(-401.096 -270.174)"/><path class="g" d="M725.341,426.693l-4.275.99-.086-.637a3.775,3.775,0,0,1,4.1-1.4Z" transform="translate(-436.877 -261.039)"/><path class="g" d="M564.5,415.855l-5.123,2.527-.1-1.1a37.671,37.671,0,0,1,5.166-2.29Z" transform="translate(-344.783 -255.058)"/><path class="g" d="M676.813,580.99c-8.653,1.369-20.974,3.147-22.928,2.553-1.619-.5-6.8-.431-11.3-.288.039-2.256.078-3.75.078-3.75l33.549-3.5A27.715,27.715,0,0,0,676.813,580.99Z" transform="translate(-392.228 -346.754)"/><path class="ac" d="M636.233,487.626s-28.5,4.895-31.56,3.961-18.761.078-18.761.078c-7.064,4.735-4.116-2.252-4.116-2.252a17.386,17.386,0,0,1,.232-6.6,40.191,40.191,0,0,0,1.188-6.6s-.155-4.662.7-5.747,1.864-8.855,1.864-8.855.779-5.278.7-6.457a44.142,44.142,0,0,1,.232-4.426l1.007-5.437c-5.825-.775-23.531-11.649-23.531-11.649-.861-3.646-7.452-12.192-7.452-12.192a8.871,8.871,0,0,0-.547-2.1c-.465-1.24,6.526-3.724,6.526-3.724s5.2,6.367,6.29,8.076a35.487,35.487,0,0,0,4.813,4.89,3.788,3.788,0,0,1,1.722.224l.09.026h0a13.924,13.924,0,0,1,3.478,2,6.742,6.742,0,0,1,4.735,1.787s3.186-.465,3.728.078,3.263,0,3.263,0,2.716-5.747,4.5-4.077,9.363,1.593,9.363,1.593c1.012-1.343,3.47-2.307,5.007-2.8a6.707,6.707,0,0,1,4.051-.065,5.221,5.221,0,0,1,1.6.771l4.6,4.5s1.322-1.722,1.167-2.1,1.554-.7,1.554-.7,2.251-.7,3.1-.934,1.636.693,1.722.775a9.1,9.1,0,0,1-.383-3.414,4.018,4.018,0,0,0-.934-2.8c2.721-6.677,8.855-1.085,8.855-1.085s.7,3.651.078,5.045.62,4.352.465,5.127.31,2.1.31,3.573a20.953,20.953,0,0,1-1.244,5.51c-.469,1.24-4.193,4.038-4.193,4.038s-.232,4.43-1.864,6.991S627.924,464,627.924,464s1.554,6.849,3.509,9.04S636.233,487.626,636.233,487.626Z" transform="translate(-343.017 -255.422)"/><path class="g" d="M640.513,457.881s-.861-2.561-1.632-2.794a18.482,18.482,0,0,1-2.252-1.012l.5-.956s2.915.8,3.384,1.653S640.513,457.881,640.513,457.881Z" transform="translate(-388.84 -276.773)"/><path class="g" d="M600.039,448.318c-.155.775-7.069,1.477-7.069,1.477l3.5-3.5h0l.086.03h0A13.923,13.923,0,0,1,600.039,448.318Z" transform="translate(-363.975 -272.883)"/><circle class="p" cx="0.62" cy="0.62" r="0.62" transform="translate(215.443 164.16)"/><circle class="p" cx="0.62" cy="0.62" r="0.62" transform="translate(216.239 165.404)"/><circle class="p" cx="0.62" cy="0.62" r="0.62" transform="translate(217.018 166.549)"/><circle class="p" cx="0.62" cy="0.62" r="0.62" transform="translate(217.832 167.793)"/><circle class="p" cx="0.504" cy="0.504" r="0.504" transform="translate(291.15 167.84)"/><circle class="p" cx="0.504" cy="0.504" r="0.504" transform="translate(291.227 168.985)"/><circle class="p" cx="0.504" cy="0.504" r="0.504" transform="translate(291.296 170.131)"/><path class="g" d="M645.74,513.06c-.073-.09,17.431,22.016,31.022,9.243C676.761,522.3,655.288,525.213,645.74,513.06Z" transform="translate(-394.028 -310.909)"/><path class="g" d="M622.38,539.76s10.474.284,11.568,3.3V546.2a2,2,0,0,1-1.946,0c-1.055-.573-7.392-3.788-9.622-2.243Z" transform="translate(-380.724 -326.115)"/><path class="ac" d="M622.83,539.76s10.018.271,11.064,3.147v2.983a1.92,1.92,0,0,1-1.864,0c-1.007-.542-7.064-3.612-9.2-2.152Z" transform="translate(-380.981 -326.115)"/><path class="g" d="M635.66,486.92a33.841,33.841,0,0,0,4.06,6.97,27.328,27.328,0,0,0,6.363,6.143S635.832,488.362,635.66,486.92Z" transform="translate(-388.288 -296.022)"/><path class="g" d="M627.7,458.65s1.748,7.542,6.251,10.108Z" transform="translate(-383.754 -279.922)"/><path class="g" d="M621.265,460.417c-.043-.138-1.55,5.967,5.807,9.346C627.089,469.763,623.947,468.7,621.265,460.417Z" transform="translate(-380.001 -280.927)"/><path class="g" d="M727.716,448.664a52.8,52.8,0,0,1,4.649,3.491S729.929,448.509,727.716,448.664Z" transform="translate(-440.712 -274.232)"/><path class="z" d="M662.522,408.972a1.967,1.967,0,0,0,.723,1.248,1.993,1.993,0,0,0,.861.194c2.82.172,5.751.3,8.356-.788a3.16,3.16,0,0,0,1.292-.839,5.208,5.208,0,0,0,.74-2.045,26.83,26.83,0,0,1,1.722-3.926,13.168,13.168,0,0,0,.913-7.047,4.67,4.67,0,0,0-.7-2.062c-.749-1.068-2.109-1.5-3.1-2.346s-1.623-2.152-2.777-2.79a5.359,5.359,0,0,0-3.487-.31,18.4,18.4,0,0,0-6.552,2.445,3.253,3.253,0,0,1-2.152.74,3.007,3.007,0,0,1-1.6-1.227,8.61,8.61,0,0,0-.689,4.025,1.791,1.791,0,0,1,0,.607,1.873,1.873,0,0,1-.43.641c-.7.805-1.132,2.084-.43,2.9.3.357.758.551,1.05.913.521.65.344,1.58.331,2.415a1.231,1.231,0,0,0,.207.818,1.192,1.192,0,0,0,1.141.271,3.165,3.165,0,0,1,1.214-.116,2,2,0,0,1,1.055.814A14.939,14.939,0,0,1,662.522,408.972Z" transform="translate(-399.217 -239.754)"/><g class="c" transform="translate(255.606 150.375)"><path d="M674.014,418.29a3.125,3.125,0,0,1-1.292.861c-2.583,1.085-5.536.96-8.356.784a1.876,1.876,0,0,1-.861-.194,1.954,1.954,0,0,1-.723-1.248,14.389,14.389,0,0,0-2.355-5.463,2,2,0,0,0-1.055-.814,3.082,3.082,0,0,0-1.214.116,1.2,1.2,0,0,1-1.128-.271,1.24,1.24,0,0,1-.207-.822c0-.831.189-1.765-.331-2.411-.293-.366-.749-.555-1.05-.913a1.825,1.825,0,0,1-.181-1.855,2.126,2.126,0,0,0-.129,2.475c.3.357.758.551,1.05.913.521.65.344,1.58.331,2.415a1.231,1.231,0,0,0,.207.818,1.192,1.192,0,0,0,1.141.271,3.164,3.164,0,0,1,1.214-.116,2,2,0,0,1,1.055.814,14.581,14.581,0,0,1,2.355,5.467,1.459,1.459,0,0,0,1.593,1.442c2.82.172,5.751.3,8.356-.788a3.16,3.16,0,0,0,1.292-.839,2.467,2.467,0,0,0,.4-.749,1.325,1.325,0,0,1-.112.108Z" transform="translate(-654.786 -400.347)"/><path d="M657.617,397.267a1.292,1.292,0,0,0,.284-.465,1.8,1.8,0,0,0,0-.607,8.567,8.567,0,0,1,.431-3.345l-.052-.06a8.55,8.55,0,0,0-.689,4.025A2.653,2.653,0,0,1,657.617,397.267Z" transform="translate(-656.371 -392.79)"/></g><path class="g" d="M668.84,449.3s11.546,1.528,12.583-.207" transform="translate(-407.184 -274.478)"/><path class="g" d="M721,438.47s6.41,0,7.822,2.415" transform="translate(-436.889 -268.43)"/><path class="e" d="M1038.815,425s.8,1.046-.37,2.63-2.152,2.923-1.748,3.909c0,0,1.769-2.94,3.207-2.983S1040.4,426.748,1038.815,425Z" transform="translate(-616.627 -260.759)"/><path class="g" d="M1038.881,425a1.421,1.421,0,0,1,.164.327c1.4,1.653,2.152,3.19.8,3.229-1.257.039-2.764,2.286-3.125,2.854a.383.383,0,0,0,.043.129c.017.043,1.769-2.94,3.207-2.983S1040.465,426.748,1038.881,425Z" transform="translate(-616.692 -260.759)"/><path class="v" d="M1044.955,427.738c0,.37-.039.672-.09.672s-.095-.3-.095-.672.052-.194.1-.194S1044.955,427.372,1044.955,427.738Z" transform="translate(-621.277 -262.184)"/><path class="v" d="M1045.557,428.744c-.323.177-.607.284-.629.237s.215-.224.542-.4.194-.047.219,0S1045.884,428.568,1045.557,428.744Z" transform="translate(-621.366 -262.747)"/><path class="e" d="M1029.514,425s-.8,1.046.37,2.63,2.152,2.923,1.748,3.909c0,0-1.769-2.94-3.212-2.983S1027.93,426.748,1029.514,425Z" transform="translate(-611.561 -260.759)"/><path class="g" d="M1029.514,425a1.319,1.319,0,0,0-.168.327c-1.4,1.653-2.152,3.19-.8,3.229,1.257.039,2.768,2.286,3.13,2.854a.383.383,0,0,1-.043.129c-.017.043-1.769-2.94-3.212-2.983S1027.93,426.748,1029.514,425Z" transform="translate(-611.561 -260.759)"/><path class="v" d="M1028.43,427.74c0,.37.043.672.095.672a1.36,1.36,0,0,0,.09-.672c0-.366-.052-.194-.1-.194S1028.43,427.374,1028.43,427.74Z" transform="translate(-611.971 -262.186)"/><path class="v" d="M1026.978,428.744c.327.177.607.284.633.237s-.22-.224-.542-.4-.2-.047-.224,0S1026.656,428.568,1026.978,428.744Z" transform="translate(-611.032 -262.747)"/><path class="ad" d="M1029,438.216a8.206,8.206,0,0,0,2.919-.551c.676-.482,3.444-1.055,3.621-.284s3.371,3.84.861,3.874-5.885-.392-6.561-.805S1029,438.216,1029,438.216Z" transform="translate(-612.296 -267.595)"/><path class="ae" d="M1036.43,442.579c-2.531,0-5.885-.4-6.557-.805-.517-.314-.719-1.438-.788-1.954H1029s.142,1.812.818,2.221,4.025.827,6.561.805c.732,0,.982-.267.969-.65C1037.253,442.429,1036.977,442.575,1036.43,442.579Z" transform="translate(-612.296 -269.199)"/></g></svg>