<?xml version="1.0" encoding="UTF-8" standalone="no"?><!DOCTYPE svg PUBLIC "-//W3C//DTD SVG 1.1//EN" "http://www.w3.org/Graphics/SVG/1.1/DTD/svg11.dtd"><svg width="100%" height="100%" viewBox="0 0 195 28" version="1.1" xmlns="http://www.w3.org/2000/svg" xmlns:xlink="http://www.w3.org/1999/xlink" xml:space="preserve" xmlns:serif="http://www.serif.com/" style="fill-rule:evenodd;clip-rule:evenodd;stroke-linecap:square;stroke-miterlimit:3;"><g id="Logo"><g id="Group"><path d="M2.397,14.919c0,-6.115 4.965,-11.08 11.081,-11.08c6.115,0 11.08,4.965 11.08,11.08c0,6.116 -4.965,11.081 -11.08,11.081c-6.116,0 -11.081,-4.965 -11.081,-11.081Z" style="fill:none;stroke:#ff5a5f;stroke-opacity:0.4;stroke-width:1px;"/><path d="M9.639,3.839c0,-2.119 1.72,-3.839 3.839,-3.839c2.118,0 3.838,1.72 3.838,3.839c0,2.118 -1.72,3.838 -3.838,3.838c-2.119,0 -3.839,-1.72 -3.839,-3.838Z" style="fill:#ff5a5f;fill-rule:nonzero;"/><path d="M0,20.534c0,-2.119 1.72,-3.839 3.839,-3.839c2.118,0 3.839,1.72 3.839,3.839c0,2.119 -1.721,3.839 -3.839,3.839c-2.119,0 -3.839,-1.72 -3.839,-3.839Z" style="fill:#ff5a5f;fill-rule:nonzero;"/><path d="M19.278,20.534c0,-2.119 1.72,-3.839 3.839,-3.839c2.118,0 3.838,1.72 3.838,3.839c0,2.119 -1.72,3.839 -3.838,3.839c-2.119,0 -3.839,-1.72 -3.839,-3.839Z" style="fill:#ff5a5f;fill-rule:nonzero;"/></g><g transform="matrix(0.341435,0,0,0.341435,-582.14,-111.057)"><text x="1814.45px" y="387.525px" style="font-family:'Poppins';font-weight:700;font-size:61.692px;fill:#333;">Link</text><text x="1947.27px" y="387.525px" style="font-family:'Poppins-Regular', 'Poppins';font-size:61.692px;fill:#ff3339;">Business</text><text x="2212.43px" y="387.525px" style="font-family:'Poppins-Regular', 'Poppins';font-size:61.692px;fill:#999;">.in</text></g></g></svg>