<svg xmlns="http://www.w3.org/2000/svg" viewBox="0 0 56 60"><defs><style>.a{fill:#ffedee;}.b{fill:#fe9b9e;}.c{fill:#fff;}.d{fill:#ff6165;}</style></defs><g transform="translate(-17.067)"><g transform="translate(18.067 1)"><path class="a" d="M312.2,61.733v1h-6v-1a3,3,0,1,1,6,0Z" transform="translate(-273.2 -52.733)"/><path class="a" d="M261,10.533v7h-6v-7a3,3,0,0,1,6,0Z" transform="translate(-228 -7.533)"/><path class="a" d="M209.8,53.2v2h-6v-2a3,3,0,1,1,6,0Z" transform="translate(-182.8 -45.2)"/><path class="a" d="M76.6,92.867h-50a2.006,2.006,0,0,0-2,2v22a2.006,2.006,0,0,0,2,2H55.53a9.007,9.007,0,0,1,6.06-3,.01.01,0,0,0,.01-.01h6v3.01h9a2.006,2.006,0,0,0,2-2v-22A2.006,2.006,0,0,0,76.6,92.867Z" transform="translate(-24.6 -82.867)"/><path class="b" d="M447.733,94.866v22a2.006,2.006,0,0,1-2,2h-3a2.006,2.006,0,0,0,2-2v-22a2.006,2.006,0,0,0-2-2h3A2.006,2.006,0,0,1,447.733,94.866Z" transform="translate(-393.733 -82.866)"/><path class="a" d="M81.653,144.84V145H62.733a4,4,0,0,0-4-4V131a4,4,0,0,0,4-4h18.92a8.92,8.92,0,1,0,0,17.84Z" transform="translate(-54.733 -113)"/><path class="b" d="M277.4,131v10a4,4,0,0,0-4,4h-19.08v-.16a8.92,8.92,0,0,0,8.89-8.27c.02-.21.03-.43.03-.65A8.925,8.925,0,0,0,254.4,127h19a4,4,0,0,0,4,4Z" transform="translate(-227.397 -113)"/><g transform="translate(18 14)"><path class="a" d="M274.4,131v10a4,4,0,0,0-4,4h-16.08v-.16a8.92,8.92,0,0,0,8.89-8.27c.02-.21.03-.43.03-.65A8.925,8.925,0,0,0,254.4,127h16a4,4,0,0,0,4,4Z" transform="translate(-245.397 -127)"/><path class="a" d="M196.04,135.92c0,.22-.01.44-.03.65a8.917,8.917,0,1,1-8.89-9.57h.08A8.924,8.924,0,0,1,196.04,135.92Z" transform="translate(-178.199 -127)"/></g><path class="b" d="M179.2,425.667h20a1,1,0,0,1,1,1v7a1,1,0,0,1-1,1h-20a1,1,0,0,1-1-1v-7A1,1,0,0,1,179.2,425.667Z" transform="translate(-160.2 -376.667)"/><path class="a" d="M179.2,425.667h17a1,1,0,0,1,1,1v7a1,1,0,0,1-1,1h-17a1,1,0,0,1-1-1v-7A1,1,0,0,1,179.2,425.667Z" transform="translate(-160.2 -376.667)"/><path class="b" d="M180.976,189.731v16s0,7-5,10h-18s-4.47-8.05-4.95-14h15.88a9.007,9.007,0,0,1,6.06-3,.01.01,0,0,0,.01-.01v-8.99a3,3,0,1,1,6,0Z" transform="translate(-137.976 -165.731)"/><path class="a" d="M177.976,192.744v16s0,7-5,10h-15s-4.47-8.05-4.95-14h15.88a9.007,9.007,0,0,1,6.06-3,.01.01,0,0,0,.01-.01v-8.99a3,3,0,0,1,1.5-2.6,3.31,3.31,0,0,1,.62.48A2.994,2.994,0,0,1,177.976,192.744Z" transform="translate(-137.976 -168.744)"/></g><g transform="translate(18.067 6)"><path class="c" d="M155.976,323.734v7a1,1,0,0,0,1,1h3a1,1,0,0,1-1-1v-7a1,1,0,0,1,1-1h.473c-1.192-2.327-4.045-8.308-4.423-13h-3c.378,4.692,3.231,10.673,4.423,13h-.473A1,1,0,0,0,155.976,323.734Z" transform="translate(-137.976 -278.734)"/><path class="c" d="M203.8,48.2v2h3v-2a2.984,2.984,0,0,1,1.5-2.584,2.964,2.964,0,0,0-1.5-.416,3,3,0,0,0-3,3Z" transform="translate(-182.8 -45.2)"/><path class="c" d="M24.6,89.866v22a2.006,2.006,0,0,0,2,2h3a2.006,2.006,0,0,1-2-2v-22a2.006,2.006,0,0,1,2-2h-3A2.006,2.006,0,0,0,24.6,89.866Z" transform="translate(-24.6 -82.866)"/></g><g transform="translate(17.067)"><path class="c" d="M19.067,110.933v22h-2v-22Z" transform="translate(-17.067 -97.933)"/><path class="d" d="M17.067,35a3,3,0,0,0,3,3h12.16c.615,4.483,3.013,9.672,4.24,12.1a2,2,0,0,0-1.4,1.9v6a2,2,0,0,0,2,2h20a2,2,0,0,0,2-2V52a1.987,1.987,0,0,0-.71-1.515c3.661-3.58,3.71-9.214,3.71-9.484V38h8a3,3,0,0,0,3-3V13a3,3,0,0,0-3-3h-12a3.972,3.972,0,0,0-6-3.444V4a4,4,0,0,0-8,0V5.555a3.957,3.957,0,0,0-2-.555,4,4,0,0,0-4,4v1h-18a3,3,0,0,0-3,3v4a1,1,0,1,0,2,0V13a1,1,0,0,1,1-1h50a1,1,0,0,1,1,1V35a1,1,0,0,1-1,1h-8V34h2a1,1,0,0,0,1-1,3,3,0,0,1,3-3,1,1,0,0,0,1-1V19a1,1,0,0,0-1-1,3,3,0,0,1-3-3,1,1,0,0,0-1-1h-38a1,1,0,0,0-1,1,3,3,0,0,1-3,3,1,1,0,0,0-1,1V29a1,1,0,0,0,1,1,3,3,0,0,1,3,3,1,1,0,0,0,1,1H51.358a8.891,8.891,0,0,0-2.787,2h-28.5a1,1,0,0,1-1-1V25a1,1,0,0,0-2,0V35Zm29-31a2,2,0,1,1,4,0v6h-4V4Zm-6,5a2,2,0,0,1,4,0v1h-4V9Zm14-1a2,2,0,0,1,2,2h-4A2,2,0,0,1,54.067,8Zm-17,50V52h20v6Zm30-38.1v8.2a5.014,5.014,0,0,0-3.9,3.9h-1.1V25a4,4,0,1,0-8,0v7H51.05a10.049,10.049,0,0,0,1.088-.929,1,1,0,0,0-1.414-1.414,7.97,7.97,0,0,1-2.544,1.715,8,8,0,1,1,0-14.744,7.968,7.968,0,0,1,2.544,1.715,1,1,0,0,0,1.414-1.414A10.049,10.049,0,0,0,51.05,16H63.168A5.015,5.015,0,0,0,67.067,19.9Zm-44,8.2V19.9a5.014,5.014,0,0,0,3.9-3.9H39.084a9.935,9.935,0,0,0,0,16H26.966A5.015,5.015,0,0,0,23.067,28.1Zm24,14.9h0a1,1,0,0,0,1-.994c0-.25.131-6.138,7.124-7.012a.964.964,0,0,0,.174-.055.767.767,0,0,0,.377-.216c.01-.009.022-.015.032-.025a.989.989,0,0,0,.293-.7V25a2,2,0,0,1,4,0V41c0,.064-.079,6.261-4.308,9H38.667c-.886-1.688-3.706-7.325-4.424-12H47.16a9.864,9.864,0,0,0-1.093,4,1,1,0,0,0,1,1Z" transform="translate(-17.067)"/><path class="d" d="M18.118,172.665a1.053,1.053,0,0,0,.71-.29,1.014,1.014,0,0,0,0-1.42l-.15-.12a.762.762,0,0,0-.18-.09.635.635,0,0,0-.18-.06,1.463,1.463,0,0,0-.2-.02,1.05,1.05,0,0,0-.71.29.986.986,0,0,0,.33,1.63A1,1,0,0,0,18.118,172.665Z" transform="translate(-17.118 -150.665)"/><path class="d" d="M228.674,159.406a4.538,4.538,0,0,0-1.741-.7v-2.219a2.186,2.186,0,0,1,.6.275,1,1,0,0,0,1.144-1.641,4.448,4.448,0,0,0-1.774-.686.977.977,0,0,0-1.934,0,4.445,4.445,0,0,0-1.773.686,2.72,2.72,0,0,0,0,4.671,4.541,4.541,0,0,0,1.741.7v2.219a2.181,2.181,0,0,1-.595-.275,1,1,0,0,0-1.146,1.64,4.553,4.553,0,0,0,1.779.71.976.976,0,0,0,1.924,0,4.551,4.551,0,0,0,1.78-.71,2.72,2.72,0,0,0,0-4.67Zm-4.337-1.254a.749.749,0,0,1,0-1.391,2.18,2.18,0,0,1,.595-.275v1.95A2.337,2.337,0,0,1,224.337,158.152Zm3.192,4.285a2.183,2.183,0,0,1-.6.275v-1.95a2.322,2.322,0,0,1,.6.284.749.749,0,0,1,0,1.391Z" transform="translate(-197.866 -135.599)"/><path class="d" d="M87.334,184.2v-4a1,1,0,0,0-2,0v4a1,1,0,1,0,2,0Z" transform="translate(-77.334 -158.201)"/><path class="d" d="M409.6,180.2v4a1,1,0,1,0,2,0v-4a1,1,0,1,0-2,0Z" transform="translate(-363.6 -158.2)"/></g></g></svg>