<svg xmlns="http://www.w3.org/2000/svg" viewBox="0 0 60 60"><defs><style>.a{fill:#fe9b9e;}.b{fill:#ffedee;}.c{fill:#f5f5f5;}.d{fill:#fff;}.e{fill:#ff6165;}</style></defs><g transform="translate(0 -0.277)"><g transform="translate(0.999 1.277)"><path class="a" d="M9.391,7.67h35.96a2,2,0,0,1,2,2v54a2,2,0,0,1-2,2H9.391a2,2,0,0,1-2-2v-54A2,2,0,0,1,9.391,7.67Z" transform="translate(-7.393 -7.67)"/><path class="b" d="M9.391,7.67H42.355a2,2,0,0,1,2,2v54a2,2,0,0,1-2,2H9.391a2,2,0,0,1-2-2v-54A2,2,0,0,1,9.391,7.67Z" transform="translate(-7.393 -7.67)"/><path class="b" d="M61.992,369.69l-4.238,9.9,9.888-4.243,1.1-1.757-4.994-5Z" transform="translate(-51.761 -325.589)"/><path class="a" d="M138.882,48.331,99,88.261,93.342,82.6l39.886-39.93,3.157,3.16Z" transform="translate(-83.113 -38.501)"/><g transform="translate(10.229 4.17)"><path class="b" d="M136.385,45.831l-5.494,5.5L96.5,85.761,93.342,82.6l39.886-39.93Z" transform="translate(-93.342 -42.671)"/><path class="b" d="M0,0,4.311,0l0,3.534L0,3.534Z" transform="translate(43.094 8.108) rotate(135)"/></g><path class="c" d="M0,0,4.311,0l0,4.467L0,4.467Z" transform="translate(50.824 9.78) rotate(135)"/><path class="a" d="M417.108,30.6l-3.526,3.53-2.457-2.46-3.2-3.2,3.526-3.53a4,4,0,0,1,5.654,5.66Z" transform="translate(-360.26 -21.849)"/><path class="b" d="M414.651,28.14l-3.526,3.53-3.2-3.2,3.526-3.53a4,4,0,0,1,4.145-.95A4.015,4.015,0,0,1,414.651,28.14Z" transform="translate(-360.26 -21.85)"/><path class="d" d="M9.391,65.67h3a2,2,0,0,1-2-2v-54a2,2,0,0,1,2-2h-3a2,2,0,0,0-2,2v54A2,2,0,0,0,9.391,65.67Z" transform="translate(-7.393 -7.67)"/></g><g transform="translate(0 0.277)"><path class="d" d="M2,25.457v54H0v-54Z" transform="translate(0 -22.457)"/><g transform="translate(0 0)"><path class="e" d="M1,8.277a1,1,0,0,0,1-1v-4a1,1,0,0,1,1-1h35.96a1,1,0,0,1,1,1v6a1,1,0,1,0,2,0v-6a3,3,0,0,0-3-3H3a3,3,0,0,0-3,3v4A1,1,0,0,0,1,8.277Z" transform="translate(0 -0.277)"/><path class="e" d="M1.419,84.291a.64.64,0,0,0-.18-.06,1.5,1.5,0,0,0-.2-.02,1.05,1.05,0,0,0-.709.29,1.032,1.032,0,0,0-.21.33,1.022,1.022,0,0,0,.21,1.09,1.031,1.031,0,0,0,.33.21,1,1,0,0,0,.38.08,1.05,1.05,0,0,0,.709-.29,1.015,1.015,0,0,0,0-1.42l-.15-.12A.754.754,0,0,0,1.419,84.291Z" transform="translate(-0.04 -74.211)"/><path class="e" d="M3,163.786h35.96a3,3,0,0,0,3-3v-24a1,1,0,1,0-2,0v24a1,1,0,0,1-1,1H3a1,1,0,0,1-1-1v-42a1,1,0,1,0-2,0v42A3,3,0,0,0,3,163.786Z" transform="translate(0 -103.786)"/><path class="e" d="M95.859,17.951l-6.577,6.583-34.39,34.43c-.01.009-.013.022-.022.031a.993.993,0,0,0-.19.282l-.008.017-4.23,9.882a1,1,0,0,0,.918,1.394.987.987,0,0,0,.394-.081l9.87-4.235.017-.008a.968.968,0,0,0,.282-.19c.009-.009.022-.012.031-.022L96.344,31.607l6.576-6.584a5,5,0,0,0-7.063-7.071Zm-.22,11.533L91.4,25.242l1.631-1.634,4.238,4.243Zm-5.65-2.828L94.226,30.9,61.249,63.913,57.011,59.67ZM53.258,67.67l2.673-6.244,3.564,3.568ZM101.5,23.612l-2.826,2.829-4.233-4.247,2.826-2.824a3,3,0,0,1,4.238,4.243Z" transform="translate(-44.367 -14.57)"/><path class="e" d="M92.12,75.818H68.147a1,1,0,0,0,0,2H92.12a1,1,0,0,0,0-2Z" transform="translate(-59.157 -66.818)"/><path class="e" d="M93.119,127.179a1,1,0,0,0-1-1H68.147a1,1,0,0,0,0,2H92.12A1,1,0,0,0,93.119,127.179Z" transform="translate(-59.157 -111.179)"/><path class="e" d="M68.147,176.539a1,1,0,0,0,0,2h17.98a1,1,0,0,0,0-2Z" transform="translate(-59.157 -155.539)"/></g></g></g></svg>