<svg xmlns="http://www.w3.org/2000/svg" viewBox="0 0 59.002 60"><defs><style>.a{fill:#fe9b9e;}.b{fill:#fff;}.c{fill:#ffedee;}.d{fill:#ff6165;}</style></defs><g transform="translate(-4.258 0)"><path class="a" d="M107.132,100.988l9.367,9.367a2.431,2.431,0,0,0,3.428-.148l29.212-28.993.964-22.32Z" transform="translate(-90.817 -51.99)"/><path class="b" d="M22.81,77.36l-9.367-9.367a2.431,2.431,0,0,1,.148-3.428L42.585,35.353l22.32-.964Z" transform="translate(-7.547 -30.358)"/><path class="c" d="M46.71,94.413,29.63,77.333a2.348,2.348,0,0,1,.3-3.28l29-29.2,21.356-1.927L78.275,65.2,49.99,94.117A2.348,2.348,0,0,1,46.71,94.413Z" transform="translate(-21.927 -37.892)"/><circle class="b" cx="4.001" cy="4.001" r="4.001" transform="translate(44.324 10.995)"/><g transform="translate(4.258 0)"><path class="d" d="M28.252,90.083a3.512,3.512,0,0,1-2.492-1.031L5.291,68.583a3.53,3.53,0,0,1,0-4.991L23.551,45.183a1,1,0,1,1,1.42,1.408L6.709,65a1.532,1.532,0,0,0,0,2.165L27.174,87.637a1.532,1.532,0,0,0,2.162,0L57.266,58.955V36.077H35.4l-4.667,4.7a1,1,0,1,1-1.42-1.408l5.253-5.3h24.7v25.69l-28.5,29.275A3.537,3.537,0,0,1,28.252,90.083Z" transform="translate(-4.258 -30.083)"/><circle class="d" cx="1" cy="1" r="1" transform="translate(22.003 11.995)"/><path class="d" d="M342.059,95.278a5,5,0,1,1,5-5A5,5,0,0,1,342.059,95.278Zm0-8a3,3,0,1,0,3,3A3,3,0,0,0,342.059,87.277Z" transform="translate(-298.053 -75.282)"/><path class="d" d="M372.193,16a1,1,0,0,1-.707-1.707l14-14A1,1,0,0,1,386.9,1.7l-14,14A1,1,0,0,1,372.193,16Z" transform="translate(-328.187 0)"/><path class="d" d="M268.493,276.987a1,1,0,0,1-.707-1.707l10.608-10.608a1,1,0,0,1,1.414,1.414L269.2,276.694A1,1,0,0,1,268.493,276.987Z" transform="translate(-236.641 -233.393)"/><path class="d" d="M389.175,236.18a1.077,1.077,0,0,1-.391-.07,1.009,1.009,0,0,1-.319-.22.99.99,0,0,1-.29-.71,1,1,0,0,1,.29-.7,1.766,1.766,0,0,1,.149-.13.754.754,0,0,1,.18-.09.626.626,0,0,1,.181-.061.955.955,0,0,1,.58.061.862.862,0,0,1,.319.22.975.975,0,0,1,.3.7.964.964,0,0,1-.08.38.922.922,0,0,1-.221.33,1.009,1.009,0,0,1-.319.22A.991.991,0,0,1,389.175,236.18Z" transform="translate(-343.178 -206.733)"/><path class="d" d="M214.185,162.347a1,1,0,0,1-.707-1.707l10.608-10.609a1,1,0,0,1,1.414,1.414l-10.608,10.609A1,1,0,0,1,214.185,162.347Z" transform="translate(-188.698 -132.189)"/><path class="d" d="M286.593,201.043a1,1,0,0,1-.707-1.707l7.072-7.072a1,1,0,0,1,1.414,1.414l-7.072,7.072a1,1,0,0,1-.707.293Z" transform="translate(-252.62 -169.471)"/><path class="d" d="M226.251,303.993a1,1,0,0,1-.707-1.707l1.414-1.414a1,1,0,0,1,1.414,1.414l-1.414,1.414A1,1,0,0,1,226.251,303.993Z" transform="translate(-199.35 -265.35)"/><path class="d" d="M141.776,150.27a1,1,0,0,1-.707-1.707l10.608-10.608a1,1,0,0,1,1.414,1.414l-10.608,10.608a1,1,0,0,1-.707.293Z" transform="translate(-124.776 -121.527)"/><path class="d" d="M262.449,109.527a.987.987,0,0,1-.38-.069,1.223,1.223,0,0,1-.33-.221.955.955,0,0,1-.22-.33.99.99,0,0,1-.07-.38,1.012,1.012,0,0,1,.29-.7.836.836,0,0,1,.33-.22,1.023,1.023,0,0,1,1.09.22.974.974,0,0,1,.21,1.08.932.932,0,0,1-.21.33,1.205,1.205,0,0,1-.33.221.991.991,0,0,1-.38.069Z" transform="translate(-231.305 -94.932)"/><path class="d" d="M190.011,266.393a1.032,1.032,0,0,1-.71-.29,1.015,1.015,0,0,1-.221-.33,1,1,0,0,1,.221-1.09.847.847,0,0,1,.149-.12.967.967,0,0,1,.17-.1,1.352,1.352,0,0,1,.19-.05,1,1,0,0,1,.9.271.939.939,0,0,1,.221.329,1,1,0,0,1-.221,1.091A1.026,1.026,0,0,1,190.011,266.393Z" transform="translate(-167.347 -233.405)"/><path class="d" d="M262.448,278.459a.988.988,0,0,1-.38-.069,1.18,1.18,0,0,1-.33-.221.95.95,0,0,1-.22-.329.99.99,0,0,1-.07-.381,1.054,1.054,0,0,1,.29-.71.947.947,0,0,1,.33-.21,1,1,0,0,1,.76,0,.96.96,0,0,1,.62.92,1,1,0,0,1-.08.381.928.928,0,0,1-.21.329,1.16,1.16,0,0,1-.33.221.989.989,0,0,1-.38.07Z" transform="translate(-231.304 -244.062)"/><path class="d" d="M103.974,317.046a4.965,4.965,0,0,1-3.536-1.465,1,1,0,0,1,1.414-1.414,3.073,3.073,0,0,0,4.243,0,3,3,0,0,0,.869-2.373,1.459,1.459,0,0,0-.548-1.016,1.63,1.63,0,0,0-1.23-.351l-6.577.821a3.659,3.659,0,0,1-2.74-.783,3.44,3.44,0,0,1-1.28-2.4,5,5,0,0,1,8.519-3.954,1,1,0,1,1-1.414,1.414,3,3,0,0,0-5.112,2.373,1.462,1.462,0,0,0,.547,1.016,1.643,1.643,0,0,0,1.232.352l6.576-.821a3.659,3.659,0,0,1,2.739.781,3.44,3.44,0,0,1,1.28,2.4,5,5,0,0,1-4.983,5.419Z" transform="translate(-83.988 -267.172)"/><path class="d" d="M106.231,315.309a1,1,0,0,1-.707-.293l-12.73-12.73a1,1,0,0,1,1.414-1.414l12.73,12.73a1,1,0,0,1-.707,1.707Z" transform="translate(-82.159 -265.349)"/></g></g></svg>